<svg width="48" height="48" viewBox="0 0 48 48" fill="none" xmlns="http://www.w3.org/2000/svg">
<path d="M23.8121 43.9996C29.0101 43.9996 33.2239 35.0454 33.2239 23.9998C33.2239 12.9542 29.0101 4 23.8121 4C18.6142 4 14.4004 12.9542 14.4004 23.9998C14.4004 35.0454 18.6142 43.9996 23.8121 43.9996Z" stroke="#ffc600" stroke-width="1.2" stroke-linecap="round" stroke-linejoin="round"/>
<path d="M19.6205 24.7324C19.6205 24.9231 19.575 25.1008 19.484 25.2654C19.393 25.4301 19.2652 25.5709 19.1005 25.6879C18.9402 25.8049 18.7473 25.8981 18.522 25.9674C18.301 26.0324 18.0583 26.0649 17.794 26.0649C17.443 26.0649 17.1093 26.0021 16.793 25.8764C16.4767 25.7508 16.2123 25.5774 16 25.3564L16.598 24.8039C16.78 24.9859 16.9598 25.1138 17.1375 25.1874C17.3152 25.2611 17.5318 25.2979 17.7875 25.2979C18.0648 25.2979 18.2902 25.2394 18.4635 25.1224C18.6368 25.0054 18.7235 24.8538 18.7235 24.6674C18.7235 24.4984 18.6433 24.3641 18.483 24.2644C18.327 24.1648 18.119 24.1149 17.859 24.1149H17.443V23.4064H17.768C18.002 23.4064 18.197 23.3436 18.353 23.2179C18.509 23.0923 18.587 22.9341 18.587 22.7434C18.587 22.5744 18.509 22.4336 18.353 22.3209C18.2013 22.2083 18.0085 22.1519 17.7745 22.1519C17.5535 22.1519 17.3585 22.1931 17.1895 22.2754C17.0205 22.3534 16.8385 22.4899 16.6435 22.6849L16.039 22.1324C16.26 21.8984 16.5265 21.7143 16.8385 21.5799C17.1505 21.4456 17.4733 21.3784 17.807 21.3784C18.0497 21.3784 18.2728 21.4109 18.4765 21.4759C18.6845 21.5366 18.8622 21.6233 19.0095 21.7359C19.1568 21.8486 19.2717 21.9829 19.354 22.1389C19.4363 22.2949 19.4775 22.4661 19.4775 22.6524C19.4775 22.8778 19.4168 23.0836 19.2955 23.2699C19.1742 23.4519 19.0095 23.5971 18.8015 23.7054C19.0485 23.7921 19.2457 23.9264 19.393 24.1084C19.5447 24.2904 19.6205 24.4984 19.6205 24.7324Z" fill="#ffc600"/>
<path d="M22.0987 26.0714C21.7997 26.0714 21.5267 26.0173 21.2797 25.9089C21.0327 25.7963 20.8203 25.6424 20.6427 25.4474C20.4693 25.2481 20.3328 25.0098 20.2332 24.7324C20.1378 24.4551 20.0902 24.1496 20.0902 23.8159C20.0902 23.4519 20.1443 23.1204 20.2527 22.8214C20.361 22.5181 20.5127 22.2603 20.7077 22.0479C20.9027 21.8356 21.1388 21.6709 21.4162 21.5539C21.6935 21.4369 21.999 21.3784 22.3327 21.3784C22.5797 21.3784 22.8245 21.4196 23.0672 21.5019C23.3098 21.5799 23.5135 21.6861 23.6782 21.8204L23.1712 22.4574C23.0368 22.3534 22.896 22.2776 22.7487 22.2299C22.6013 22.1823 22.441 22.1584 22.2677 22.1584C21.8777 22.1584 21.57 22.2928 21.3447 22.5614C21.1237 22.8258 21.0023 23.2028 20.9807 23.6924C21.128 23.5278 21.31 23.3999 21.5267 23.3089C21.7433 23.2136 21.973 23.1659 22.2157 23.1659C22.4453 23.1659 22.6577 23.2006 22.8527 23.2699C23.0477 23.3393 23.2145 23.4368 23.3532 23.5624C23.4962 23.6838 23.6067 23.8311 23.6847 24.0044C23.7627 24.1734 23.8017 24.3598 23.8017 24.5634C23.8017 24.7801 23.7583 24.9816 23.6717 25.1679C23.585 25.3499 23.4658 25.5081 23.3142 25.6424C23.1668 25.7768 22.987 25.8829 22.7747 25.9609C22.5667 26.0346 22.3413 26.0714 22.0987 26.0714ZM22.0727 23.8679C21.869 23.8679 21.6783 23.9113 21.5007 23.9979C21.3273 24.0846 21.1713 24.2081 21.0327 24.3684C21.102 24.6544 21.2277 24.8841 21.4097 25.0574C21.5917 25.2308 21.8083 25.3174 22.0597 25.3174C22.3067 25.3174 22.5125 25.2481 22.6772 25.1094C22.8462 24.9708 22.9307 24.7953 22.9307 24.5829C22.9307 24.3706 22.8505 24.1994 22.6902 24.0694C22.5298 23.9351 22.324 23.8679 22.0727 23.8679Z" fill="#ffc600"/>
<path d="M26.231 26.0649C25.932 26.0649 25.659 26.0086 25.412 25.8959C25.165 25.7833 24.9548 25.6251 24.7815 25.4214C24.6082 25.2178 24.4717 24.9708 24.372 24.6804C24.2767 24.3901 24.229 24.0694 24.229 23.7184C24.229 23.3718 24.2767 23.0533 24.372 22.7629C24.4717 22.4726 24.6082 22.2256 24.7815 22.0219C24.9592 21.8183 25.1715 21.6601 25.4185 21.5474C25.6655 21.4348 25.9363 21.3784 26.231 21.3784C26.53 21.3784 26.803 21.4348 27.05 21.5474C27.297 21.6601 27.5072 21.8183 27.6805 22.0219C27.8538 22.2256 27.9882 22.4726 28.0835 22.7629C28.1832 23.0533 28.233 23.3718 28.233 23.7184C28.233 24.0694 28.1853 24.3901 28.09 24.6804C27.9947 24.9708 27.8582 25.2178 27.6805 25.4214C27.5072 25.6251 27.297 25.7833 27.05 25.8959C26.803 26.0086 26.53 26.0649 26.231 26.0649ZM26.231 25.2914C26.582 25.2914 26.8593 25.1506 27.063 24.8689C27.2667 24.5873 27.3685 24.2038 27.3685 23.7184C27.3685 23.2418 27.2645 22.8626 27.0565 22.5809C26.8528 22.2949 26.5777 22.1519 26.231 22.1519C25.8843 22.1519 25.6092 22.2949 25.4055 22.5809C25.2018 22.8626 25.1 23.2418 25.1 23.7184C25.1 24.2038 25.2018 24.5873 25.4055 24.8689C25.6092 25.1506 25.8843 25.2914 26.231 25.2914Z" fill="#ffc600"/>
<path d="M28.6462 22.7304C28.6462 22.5441 28.6809 22.3708 28.7502 22.2104C28.8239 22.0458 28.9214 21.9049 29.0427 21.7879C29.164 21.6666 29.307 21.5713 29.4717 21.5019C29.6407 21.4326 29.8205 21.3979 30.0112 21.3979C30.2019 21.3979 30.3817 21.4326 30.5507 21.5019C30.7197 21.5713 30.8649 21.6666 30.9862 21.7879C31.1075 21.9049 31.2029 22.0458 31.2722 22.2104C31.3459 22.3708 31.3827 22.5441 31.3827 22.7304C31.3827 22.9124 31.3459 23.0858 31.2722 23.2504C31.2029 23.4108 31.1075 23.5494 30.9862 23.6664C30.8649 23.7834 30.7197 23.8766 30.5507 23.9459C30.3817 24.0153 30.2019 24.0499 30.0112 24.0499C29.8205 24.0499 29.6407 24.0153 29.4717 23.9459C29.307 23.8766 29.164 23.7834 29.0427 23.6664C28.9214 23.5494 28.8239 23.4108 28.7502 23.2504C28.6809 23.0858 28.6462 22.9124 28.6462 22.7304ZM30.7002 22.7304C30.7002 22.5311 30.633 22.3621 30.4987 22.2234C30.3687 22.0848 30.2062 22.0154 30.0112 22.0154C29.8249 22.0154 29.6645 22.0848 29.5302 22.2234C29.4002 22.3621 29.3352 22.5311 29.3352 22.7304C29.3352 22.9298 29.4002 23.0988 29.5302 23.2374C29.6645 23.3718 29.8249 23.4389 30.0112 23.4389C30.2062 23.4389 30.3687 23.3718 30.4987 23.2374C30.633 23.0988 30.7002 22.9298 30.7002 22.7304Z" fill="#ffc600"/>
<path d="M23.9999 33.1526C35.0456 33.1526 43.9999 28.9031 43.9999 23.6611C43.9999 18.4191 35.0456 14.1697 23.9999 14.1697C12.9542 14.1697 4 18.4191 4 23.6611C4 28.9031 12.9542 33.1526 23.9999 33.1526Z" stroke="#ffc600" stroke-width="1.2" stroke-linecap="round" stroke-linejoin="round" />
<path d="M23.9999 43.9996C35.0456 43.9996 43.9999 35.0454 43.9999 23.9998C43.9999 12.9542 35.0456 4 23.9999 4C12.9543 4 4 12.9542 4 23.9998C4 35.0454 12.9543 43.9996 23.9999 43.9996Z" stroke="#ffc600" stroke-width="1.2" stroke-linecap="round" stroke-linejoin="round"/>
</svg>
