<svg width="48" height="48" viewBox="0 0 48 48" fill="none" xmlns="http://www.w3.org/2000/svg">
<path d="M28.7231 9.39014H19.2786C17.7138 9.39014 16.4453 10.6559 16.4453 12.2172V35.7764C16.4453 37.3377 17.7138 38.6035 19.2786 38.6035H28.7231C30.2879 38.6035 31.5564 37.3377 31.5564 35.7764V12.2172C31.5564 10.6559 30.2879 9.39014 28.7231 9.39014Z" stroke="#030E63" stroke-width="1.2" stroke-linecap="round" stroke-linejoin="round"/>
<path d="M19.2783 9.39014H20.695C20.8202 9.39014 20.9403 9.45633 21.0289 9.57415C21.1175 9.69196 21.1672 9.85176 21.1672 10.0184C21.1672 10.3516 21.2667 10.6712 21.4438 10.9069C21.6209 11.1425 21.8612 11.2749 22.1117 11.2749H25.8894C26.1399 11.2749 26.3801 11.1425 26.5573 10.9069C26.7344 10.6712 26.8339 10.3516 26.8339 10.0184C26.8339 9.85176 26.8836 9.69196 26.9722 9.57415C27.0607 9.45633 27.1809 9.39014 27.3061 9.39014H28.7228" stroke="#030E63" stroke-width="1.2" stroke-linecap="round" stroke-linejoin="round"/>
<path fill-rule="evenodd" clip-rule="evenodd" d="M21.5532 26.5911C21.2251 26.5941 20.8998 26.531 20.5967 26.4056C20.3078 26.2902 20.0447 26.1186 19.8229 25.9008C19.601 25.6831 19.4248 25.4234 19.3044 25.1371C19.1783 24.8404 19.1133 24.5214 19.1133 24.1992C19.1133 23.8769 19.1783 23.5579 19.3044 23.2612C19.4253 22.9751 19.6017 22.7158 19.8235 22.498C20.0453 22.2803 20.3081 22.1086 20.5967 21.9927C20.889 21.8731 21.2014 21.8101 21.5172 21.8072H21.5562C22.8035 21.8072 23.4752 22.5073 23.9999 23.3121L24.0329 23.2642C24.5486 22.4864 25.2082 21.8192 26.4076 21.8072H26.4466C26.7746 21.8042 27.1 21.8673 27.403 21.9927C27.692 22.1081 27.955 22.2797 28.1769 22.4975C28.3987 22.7152 28.575 22.9749 28.6953 23.2612C28.8215 23.5579 28.8865 23.8769 28.8865 24.1992C28.8865 24.5214 28.8215 24.8404 28.6953 25.1371C28.5741 25.4229 28.3975 25.6821 28.1758 25.8997C27.954 26.1174 27.6914 26.2893 27.403 26.4056C27.1108 26.5252 26.7984 26.5882 26.4825 26.5911H26.4436C25.1962 26.5911 24.5246 25.891 23.9999 25.0862L23.9669 25.1341C23.4512 25.9119 22.7915 26.5791 21.5922 26.5911H21.5532ZM21.5562 22.6748C21.3543 22.6728 21.1542 22.7125 20.9685 22.7915C20.7937 22.8661 20.6356 22.9749 20.5038 23.1116C20.3707 23.2497 20.2658 23.4123 20.1949 23.5903C20.045 23.9773 20.045 24.4061 20.1949 24.793C20.2661 24.9718 20.371 25.1353 20.5038 25.2747C20.6356 25.4114 20.7937 25.5203 20.9685 25.5948C21.144 25.6695 21.3325 25.7092 21.5232 25.7115H21.5562C22.4977 25.7115 22.9894 25.0054 23.4692 24.1917L23.4242 24.1199C22.9594 23.339 22.4677 22.6748 21.5562 22.6748ZM26.4466 22.6748C25.5051 22.6748 25.0133 23.3809 24.5336 24.1947L24.5756 24.2665C25.0433 25.0473 25.532 25.7115 26.4436 25.7115H26.4466C26.7408 25.7157 27.0291 25.6295 27.2726 25.4647C27.5161 25.2999 27.703 25.0643 27.8078 24.79C27.9577 24.4031 27.9577 23.9743 27.8078 23.5873C27.7359 23.4099 27.6311 23.2475 27.499 23.1087C27.3666 22.9712 27.2074 22.8623 27.0312 22.7885C26.8558 22.7138 26.6673 22.6742 26.4765 22.6719H26.4466V22.6748Z" fill="#030E63"/>
<path fill-rule="evenodd" clip-rule="evenodd" d="M21.5531 26.621C21.225 26.624 20.8996 26.561 20.5966 26.4355C20.3076 26.3201 20.0446 26.1486 19.8227 25.9308C19.6009 25.713 19.4246 25.4534 19.3043 25.167C19.175 24.8708 19.1097 24.5507 19.1124 24.2276C19.1124 23.8955 20.0809 24.0092 20.0809 24.2276C20.0797 24.4325 20.1184 24.6357 20.1948 24.826C20.266 25.0047 20.3708 25.1682 20.5036 25.3076C20.6355 25.4443 20.7935 25.5532 20.9684 25.6278C21.1439 25.7025 21.3323 25.7421 21.5231 25.7444H21.5561C22.4766 25.7444 22.9653 25.0683 23.436 24.2785L23.466 24.2276C23.6399 24.5178 23.8078 24.823 23.9997 25.1162L23.9668 25.164C23.451 25.9419 22.7914 26.6091 21.592 26.621H21.5531ZM27.4059 22.0167C27.8453 22.1956 28.2213 22.5013 28.4857 22.8946C28.7501 23.2879 28.8909 23.751 28.8901 24.2246C28.8901 24.5567 27.9216 24.437 27.9216 24.2246C27.9267 23.8235 27.7751 23.4361 27.4988 23.1446C27.3664 23.0072 27.2073 22.8982 27.0311 22.8245C26.8556 22.7498 26.6672 22.7101 26.4764 22.7078H26.4434C25.5019 22.7078 25.0102 23.4138 24.5304 24.2246C24.3565 23.9344 24.1886 23.6293 23.9967 23.3361L24.0297 23.2882C24.5454 22.5103 25.2051 21.8432 26.4044 21.8312H26.4434C26.7735 21.8276 27.1009 21.8907 27.4059 22.0167Z" fill="url(#paint0_linear_1617:1042)"/>
<defs>
<linearGradient id="paint0_linear_1617:1042" x1="26.4344" y1="23.8366" x2="22.683" y2="26.2568" gradientUnits="userSpaceOnUse">
<stop stop-color="#1E1E1E" stop-opacity="0"/>
<stop offset="0.32" stop-color="#1E1E1E" stop-opacity="0"/>
<stop offset="0.42" stop-color="#1E1E1E" stop-opacity="0.5"/>
<stop offset="0.5" stop-color="#1E1E1E" stop-opacity="0.6"/>
<stop offset="0.58" stop-color="#1E1E1E" stop-opacity="0.5"/>
<stop offset="0.68" stop-color="#181818" stop-opacity="0"/>
<stop offset="1" stop-color="#1E1E1E" stop-opacity="0"/>
</linearGradient>
</defs>
</svg>
