<svg width="36" height="36" viewBox="0 0 36 36" fill="none" xmlns="http://www.w3.org/2000/svg">
<path d="M7.61543 8.32657V7.84056C7.60939 7.4914 7.74275 7.15412 7.98625 6.90277C8.22975 6.65143 8.56348 6.50657 8.91415 6.5H30.7001C31.051 6.50624 31.385 6.65096 31.6288 6.90234C31.8726 7.15372 32.0061 7.49119 32.0001 7.84056V24.607C32.0058 24.9561 31.8721 25.2933 31.6283 25.5444C31.3846 25.7955 31.0508 25.9401 30.7001 25.9463H30.3964" stroke="black" stroke-linejoin="round"/>
<path d="M5.80781 9.86732V9.52999C5.80177 9.18094 5.93518 8.84379 6.17871 8.59265C6.42225 8.3415 6.75597 8.19691 7.10654 8.19067H28.8925C29.243 8.19691 29.5768 8.3415 29.8203 8.59265C30.0638 8.84379 30.1972 9.18094 30.1912 9.52999V26.2964C30.1943 26.4693 30.1633 26.6412 30.0997 26.8022C30.0361 26.9631 29.9413 27.1101 29.8207 27.2346C29.7001 27.3591 29.5561 27.4587 29.3968 27.5277C29.2375 27.5968 29.0662 27.6339 28.8925 27.637H28.5248" stroke="black" stroke-linejoin="round"/>
<path d="M5.29897 10.0549H27.0887C27.4393 10.0612 27.7732 10.2057 28.0169 10.4568C28.2607 10.7079 28.3943 11.0451 28.3886 11.3942V28.1594C28.3918 28.3325 28.3607 28.5045 28.297 28.6657C28.2334 28.8268 28.1385 28.9738 28.0178 29.0984C27.8971 29.2231 27.7529 29.3228 27.5935 29.3919C27.4341 29.461 27.2625 29.4981 27.0887 29.5012H5.29897C5.12517 29.4981 4.95369 29.461 4.79433 29.3918C4.63497 29.3227 4.49086 29.223 4.37024 29.0984C4.24962 28.9738 4.15486 28.8267 4.09137 28.6656C4.02788 28.5045 3.99692 28.3325 4.00024 28.1594V11.3942C3.9942 11.0452 4.12761 10.708 4.37114 10.4569C4.61467 10.2058 4.9484 10.0612 5.29897 10.0549V10.0549Z" stroke="black" stroke-width="1.2" stroke-linejoin="round"/>
<mask id="path-4-inside-1_1485_1041" fill="white">
<path d="M6.66992 18.389V13.2959H7.72493V15.3404H10.0678V13.2959H11.1228V18.389H10.0678V16.3081H7.72493V18.389H6.66992Z"/>
<path d="M12.0487 18.389V13.2959H14.0059C14.3843 13.2959 14.7383 13.3614 15.0682 13.4923C15.398 13.6233 15.6818 13.8028 15.9195 14.0308C16.162 14.2587 16.3512 14.5304 16.487 14.8457C16.6277 15.161 16.698 15.4981 16.698 15.857C16.698 16.2111 16.6277 16.5434 16.487 16.8538C16.3512 17.1643 16.162 17.4335 15.9195 17.6614C15.6818 17.8846 15.398 18.0616 15.0682 18.1926C14.7383 18.3235 14.3843 18.389 14.0059 18.389H12.0487ZM13.9986 14.2345H13.1037V17.4504H13.9986C14.2218 17.4504 14.4303 17.4092 14.6244 17.3267C14.8232 17.2443 14.9954 17.1327 15.1409 16.9921C15.2865 16.8465 15.4005 16.6768 15.4829 16.4827C15.5654 16.2887 15.6066 16.0801 15.6066 15.857C15.6066 15.629 15.5654 15.4156 15.4829 15.2167C15.4005 15.0179 15.2865 14.8457 15.1409 14.7001C14.9954 14.5546 14.8232 14.4406 14.6244 14.3582C14.4303 14.2757 14.2218 14.2345 13.9986 14.2345Z"/>
</mask>
<path d="M6.66992 18.389V13.2959H7.72493V15.3404H10.0678V13.2959H11.1228V18.389H10.0678V16.3081H7.72493V18.389H6.66992Z" fill="black"/>
<path d="M12.0487 18.389V13.2959H14.0059C14.3843 13.2959 14.7383 13.3614 15.0682 13.4923C15.398 13.6233 15.6818 13.8028 15.9195 14.0308C16.162 14.2587 16.3512 14.5304 16.487 14.8457C16.6277 15.161 16.698 15.4981 16.698 15.857C16.698 16.2111 16.6277 16.5434 16.487 16.8538C16.3512 17.1643 16.162 17.4335 15.9195 17.6614C15.6818 17.8846 15.398 18.0616 15.0682 18.1926C14.7383 18.3235 14.3843 18.389 14.0059 18.389H12.0487ZM13.9986 14.2345H13.1037V17.4504H13.9986C14.2218 17.4504 14.4303 17.4092 14.6244 17.3267C14.8232 17.2443 14.9954 17.1327 15.1409 16.9921C15.2865 16.8465 15.4005 16.6768 15.4829 16.4827C15.5654 16.2887 15.6066 16.0801 15.6066 15.857C15.6066 15.629 15.5654 15.4156 15.4829 15.2167C15.4005 15.0179 15.2865 14.8457 15.1409 14.7001C14.9954 14.5546 14.8232 14.4406 14.6244 14.3582C14.4303 14.2757 14.2218 14.2345 13.9986 14.2345Z" fill="black"/>
<path d="M6.66992 18.389H5.46992V19.589H6.66992V18.389ZM6.66992 13.2959V12.0959H5.46992V13.2959H6.66992ZM7.72493 13.2959H8.92493V12.0959H7.72493V13.2959ZM7.72493 15.3404H6.52493V16.5404H7.72493V15.3404ZM10.0678 15.3404V16.5404H11.2678V15.3404H10.0678ZM10.0678 13.2959V12.0959H8.86777V13.2959H10.0678ZM11.1228 13.2959H12.3228V12.0959H11.1228V13.2959ZM11.1228 18.389V19.589H12.3228V18.389H11.1228ZM10.0678 18.389H8.86777V19.589H10.0678V18.389ZM10.0678 16.3081H11.2678V15.1081H10.0678V16.3081ZM7.72493 16.3081V15.1081H6.52493V16.3081H7.72493ZM7.72493 18.389V19.589H8.92493V18.389H7.72493ZM12.0487 18.389H10.8487V19.589H12.0487V18.389ZM12.0487 13.2959V12.0959H10.8487V13.2959H12.0487ZM15.9195 14.0308L15.0888 14.8968L15.0976 14.9051L15.9195 14.0308ZM16.487 14.8457L15.3849 15.3204L15.388 15.3275L15.3911 15.3346L16.487 14.8457ZM16.487 16.8538L15.394 16.3585L15.3907 16.3657L15.3876 16.3728L16.487 16.8538ZM15.9195 17.6614L16.7408 18.5363L16.7414 18.5358L15.9195 17.6614ZM13.1037 14.2345V13.0345H11.9037V14.2345H13.1037ZM13.1037 17.4504H11.9037V18.6504H13.1037V17.4504ZM14.6244 17.3267L14.1647 16.2182L14.155 16.2223L14.6244 17.3267ZM15.1409 16.9921L15.975 17.8548L15.9823 17.8478L15.9895 17.8406L15.1409 16.9921ZM15.4829 16.4827L14.3785 16.0134L15.4829 16.4827ZM15.1409 14.7001L15.9895 13.8516L15.9895 13.8516L15.1409 14.7001ZM14.6244 14.3582L14.155 15.4626L14.1647 15.4667L14.6244 14.3582ZM7.86992 18.389V13.2959H5.46992V18.389H7.86992ZM6.66992 14.4959H7.72493V12.0959H6.66992V14.4959ZM6.52493 13.2959V15.3404H8.92493V13.2959H6.52493ZM7.72493 16.5404H10.0678V14.1404H7.72493V16.5404ZM11.2678 15.3404V13.2959H8.86777V15.3404H11.2678ZM10.0678 14.4959H11.1228V12.0959H10.0678V14.4959ZM9.92277 13.2959V18.389H12.3228V13.2959H9.92277ZM11.1228 17.189H10.0678V19.589H11.1228V17.189ZM11.2678 18.389V16.3081H8.86777V18.389H11.2678ZM10.0678 15.1081H7.72493V17.5081H10.0678V15.1081ZM6.52493 16.3081V18.389H8.92493V16.3081H6.52493ZM7.72493 17.189H6.66992V19.589H7.72493V17.189ZM13.2487 18.389V13.2959H10.8487V18.389H13.2487ZM12.0487 14.4959H14.0059V12.0959H12.0487V14.4959ZM14.0059 14.4959C14.2427 14.4959 14.4456 14.5363 14.6253 14.6076L15.511 12.377C15.0311 12.1865 14.5258 12.0959 14.0059 12.0959V14.4959ZM14.6253 14.6076C14.8223 14.6858 14.9715 14.7843 15.0888 14.8968L16.7501 13.1647C16.3921 12.8213 15.9738 12.5608 15.511 12.377L14.6253 14.6076ZM15.0976 14.9051C15.2165 15.0169 15.312 15.1513 15.3849 15.3204L17.5891 14.3709C17.3903 13.9095 17.1075 13.5006 16.7414 13.1564L15.0976 14.9051ZM15.3911 15.3346C15.4604 15.4899 15.498 15.6597 15.498 15.857H17.898C17.898 15.3364 17.7949 14.832 17.5829 14.3567L15.3911 15.3346ZM15.498 15.857C15.498 16.0471 15.4614 16.2098 15.394 16.3585L17.58 17.3491C17.7939 16.877 17.898 16.3751 17.898 15.857H15.498ZM15.3876 16.3728C15.3156 16.5375 15.2198 16.6722 15.0976 16.7871L16.7414 18.5358C17.1042 18.1947 17.3868 17.791 17.5864 17.3348L15.3876 16.3728ZM15.0981 16.7865C14.9798 16.8977 14.8275 16.997 14.6253 17.0773L15.511 19.3079C15.9685 19.1262 16.3838 18.8715 16.7408 18.5363L15.0981 16.7865ZM14.6253 17.0773C14.4456 17.1487 14.2427 17.189 14.0059 17.189V19.589C14.5258 19.589 15.0311 19.4984 15.511 19.3079L14.6253 17.0773ZM14.0059 17.189H12.0487V19.589H14.0059V17.189ZM13.9986 13.0345H13.1037V15.4345H13.9986V13.0345ZM11.9037 14.2345V17.4504H14.3037V14.2345H11.9037ZM13.1037 18.6504H13.9986V16.2504H13.1037V18.6504ZM13.9986 18.6504C14.3735 18.6504 14.7427 18.5803 15.0937 18.4311L14.155 16.2223C14.118 16.2381 14.07 16.2504 13.9986 16.2504V18.6504ZM15.084 18.4352C15.413 18.2988 15.7144 18.1067 15.975 17.8548L14.3069 16.1293C14.2764 16.1587 14.2335 16.1898 14.1647 16.2183L15.084 18.4352ZM15.9895 17.8406C16.2465 17.5836 16.4462 17.2842 16.5873 16.9521L14.3785 16.0134C14.3547 16.0693 14.3264 16.1095 14.2924 16.1435L15.9895 17.8406ZM16.5873 16.9521C16.7365 16.6011 16.8066 16.2319 16.8066 15.857H14.4066C14.4066 15.9284 14.3943 15.9763 14.3785 16.0134L16.5873 16.9521ZM16.8066 15.857C16.8066 15.4807 16.7378 15.1102 16.5914 14.7571L14.3744 15.6764C14.393 15.7211 14.4066 15.7773 14.4066 15.857H16.8066ZM16.5914 14.7571C16.4515 14.4196 16.2514 14.1136 15.9895 13.8516L14.2924 15.5487C14.3215 15.5778 14.3494 15.6161 14.3744 15.6764L16.5914 14.7571ZM15.9895 13.8516C15.7275 13.5897 15.4215 13.3896 15.084 13.2497L14.1647 15.4667C14.225 15.4917 14.2633 15.5196 14.2924 15.5487L15.9895 13.8516ZM15.0937 13.2538C14.7427 13.1046 14.3735 13.0345 13.9986 13.0345V15.4345C14.07 15.4345 14.118 15.4468 14.155 15.4626L15.0937 13.2538Z" fill="black" mask="url(#path-4-inside-1_1485_1041)"/>
<path d="M6.30371 26.8701L13.9241 20.582L18.8505 25.517" stroke="black" stroke-width="1.2" stroke-linecap="round" stroke-linejoin="round"/>
<path d="M26.2229 23.9456L20.9778 19.0469L16.4404 23.1048" stroke="black" stroke-width="1.2" stroke-linecap="round" stroke-linejoin="round"/>
</svg>
