<svg width="48" height="48" viewBox="0 0 48 48" fill="none" xmlns="http://www.w3.org/2000/svg">
<path d="M23.7803 37.0909L37.8844 27.6627L37.8107 18.3818" stroke="#030E63" stroke-width="1.2" stroke-linecap="round" stroke-linejoin="round"/>
<path d="M10.2637 17.9771L10.3005 27.1843L23.78 37.0911" stroke="#030E63" stroke-width="1.2" stroke-linecap="round" stroke-linejoin="round"/>
<path d="M23.7803 36.8335V27.4053" stroke="#030E63" stroke-width="1.2" stroke-linecap="round" stroke-linejoin="round"/>
<path d="M19.4336 11.9004L23.7427 15.3627" stroke="#030E63" stroke-width="1.2" stroke-linecap="round" stroke-linejoin="round"/>
<path d="M10.2637 17.9771L23.78 27.4052L37.7 18.3084" stroke="#030E63" stroke-width="1.2" stroke-linecap="round" stroke-linejoin="round"/>
<path d="M23.7412 15.2891V23.9059" stroke="#030E63" stroke-width="1.2" stroke-linecap="round" stroke-linejoin="round"/>
<path d="M23.7412 15.3627L28.8971 11.9004" stroke="#030E63" stroke-width="1.2" stroke-linecap="round" stroke-linejoin="round"/>
<path d="M37.8088 18.382L28.8975 11.8638" stroke="#030E63" stroke-width="1.2" stroke-linecap="round" stroke-linejoin="round"/>
<path d="M10.2266 17.977L19.397 11.8638" stroke="#030E63" stroke-width="1.2" stroke-linecap="round" stroke-linejoin="round"/>
<path d="M37.8456 27.5524L28.8975 21.0342" stroke="#030E63" stroke-width="1.2" stroke-linecap="round" stroke-linejoin="round"/>
<path d="M10.3018 27.0741L19.509 20.9609" stroke="#030E63" stroke-width="1.2" stroke-linecap="round" stroke-linejoin="round"/>
<path d="M19.5078 20.9238L23.7433 23.9061" stroke="#030E63" stroke-width="1.2" stroke-linecap="round" stroke-linejoin="round"/>
<path d="M23.7412 23.9062L28.8971 20.9976" stroke="#030E63" stroke-width="1.2" stroke-linecap="round" stroke-linejoin="round"/>
<path d="M19.3955 11.8638L19.4323 20.9606" stroke="#030E63" stroke-width="1.2" stroke-linecap="round" stroke-linejoin="round"/>
<path d="M28.8975 11.8638V20.9606" stroke="#030E63" stroke-width="1.2" stroke-linecap="round" stroke-linejoin="round"/>
<path d="M26.7607 35.066V28.9883" stroke="#030E63" stroke-width="1.2" stroke-linecap="round" stroke-linejoin="round"/>
<path d="M29.6699 33.1133L29.7067 27.0737" stroke="#030E63" stroke-width="1.2" stroke-linecap="round" stroke-linejoin="round"/>
<path d="M26.7607 28.9883L29.6707 27.0737" stroke="#030E63" stroke-width="1.2" stroke-linecap="round" stroke-linejoin="round"/>
</svg>
