<svg width="36" height="36" viewBox="0 0 36 36" fill="none" xmlns="http://www.w3.org/2000/svg">
<path d="M28.4142 30.406H7.58583C5.60218 30.406 4 28.8038 4 26.8202V8.58582C4 6.60217 5.60218 5 7.58583 5H28.4142C30.3978 5 32 6.60217 32 8.58582V26.8202C32 28.8038 30.3978 30.406 28.4142 30.406Z" stroke="black" stroke-width="1.2" stroke-miterlimit="10"/>
<path d="M32 11.3711H4" stroke="black" stroke-width="1.2" stroke-miterlimit="10"/>
<path d="M11.3618 11.3703L6.21191 5.49561" stroke="black" stroke-width="1.2" stroke-miterlimit="10" stroke-linecap="round"/>
<path d="M17.1991 11.2941L11.8203 5.11426" stroke="black" stroke-width="1.2" stroke-miterlimit="10" stroke-linecap="round"/>
<path d="M22.9969 11.2941L17.6182 5.11426" stroke="black" stroke-width="1.2" stroke-miterlimit="10" stroke-linecap="round"/>
<path d="M28.7586 11.2941L23.418 5.11426" stroke="black" stroke-width="1.2" stroke-miterlimit="10" stroke-linecap="round"/>
<path d="M15.7881 16.8259V23.6923C15.7881 24.0357 16.1696 24.2264 16.4366 24.0357L21.7009 20.6024C21.9679 20.4498 21.9679 20.0684 21.7009 19.8776L16.4747 16.4444C16.1696 16.2537 15.7881 16.4825 15.7881 16.8259Z" stroke="black" stroke-width="1.2"/>
</svg>
