<svg width="48" height="48" viewBox="0 0 48 48" fill="none" xmlns="http://www.w3.org/2000/svg">
<path d="M24.1262 38.9996C28.0246 38.9996 31.1849 32.284 31.1849 23.9998C31.1849 15.7156 28.0246 9 24.1262 9C20.2277 9 17.0674 15.7156 17.0674 23.9998C17.0674 32.284 20.2277 38.9996 24.1262 38.9996Z" stroke="#030E63" stroke-width="1.2" stroke-linecap="round" stroke-linejoin="round"/>
<path d="M23.9999 30.8641C32.2841 30.8641 38.9998 27.677 38.9998 23.7455C38.9998 19.814 32.2841 16.627 23.9999 16.627C15.7157 16.627 9 19.814 9 23.7455C9 27.677 15.7157 30.8641 23.9999 30.8641Z" stroke="#030E63" stroke-width="1.2" stroke-linecap="round" stroke-linejoin="round"/>
<path d="M23.9999 39.0001C32.2841 39.0001 38.9998 32.2845 38.9998 24.0003C38.9998 15.7161 32.2841 9.00049 23.9999 9.00049C15.7157 9.00049 9 15.7161 9 24.0003C9 32.2845 15.7157 39.0001 23.9999 39.0001Z" stroke="#030E63" stroke-width="1.2" stroke-linecap="round" stroke-linejoin="round"/>
<path d="M21.6483 20.612V27.3638C21.646 27.441 21.6649 27.5175 21.7029 27.5849C21.741 27.6524 21.7968 27.7083 21.8645 27.7466C21.9321 27.785 22.0089 27.8044 22.0868 27.8027C22.1646 27.801 22.2406 27.7784 22.3064 27.7371L27.5088 24.3768C27.5672 24.3333 27.6146 24.277 27.6472 24.2122C27.6798 24.1474 27.6969 24.0759 27.6969 24.0034C27.6969 23.931 27.6798 23.8595 27.6472 23.7947C27.6146 23.7299 27.5672 23.6736 27.5088 23.6301L22.3064 20.2698C22.2455 20.2187 22.1707 20.1868 22.0914 20.1782C22.0122 20.1695 21.9321 20.1845 21.8615 20.2213C21.7909 20.258 21.7329 20.3148 21.6949 20.3844C21.6569 20.454 21.6407 20.5332 21.6483 20.612Z" fill="#030E63"/>
</svg>
