<svg width="48" height="48" viewBox="0 0 48 48" fill="none" xmlns="http://www.w3.org/2000/svg">
<path d="M31.7356 16.2959L31.6786 36.5995C31.6947 36.8995 31.6514 37.1998 31.551 37.4831C31.4507 37.7664 31.2953 38.027 31.0938 38.2501C30.8924 38.4732 30.6488 38.6542 30.377 38.7829C30.1053 38.9116 29.8108 38.9854 29.5105 39H18.4419C17.8292 38.9618 17.2567 38.6822 16.8502 38.2224C16.4437 37.7627 16.2364 37.1605 16.2739 36.5482L16.3309 16.2446" stroke="#030E63" stroke-width="1.2" stroke-linecap="round" stroke-linejoin="round"/>
<path d="M16.3867 16.6434C16.3935 14.6095 17.2086 12.6615 18.6525 11.2281C20.0964 9.7947 22.051 8.99324 24.0862 9.00004C26.1215 9.00685 28.0706 9.82136 29.5049 11.2644C30.9392 12.7074 31.7412 14.6608 31.7344 16.6947" stroke="#030E63" stroke-width="1.2" stroke-linecap="round" stroke-linejoin="round"/>
<path d="M27.8534 27.243C27.8466 28.2562 27.4373 29.2252 26.7156 29.9368C25.9939 30.6485 25.0189 31.0444 24.0051 31.0376C22.9912 31.0308 22.0216 30.6218 21.3096 29.9006C20.5975 29.1793 20.2013 28.2049 20.2081 27.1917V27.1917V16.5805C20.2081 16.0788 20.307 15.5821 20.4991 15.1186C20.6912 14.6551 20.9728 14.2339 21.3277 13.8792C21.6827 13.5244 22.1041 13.243 22.5679 13.0511C23.0317 12.8591 23.5287 12.7603 24.0307 12.7603C24.5327 12.7603 25.0298 12.8591 25.4936 13.0511C25.9574 13.243 26.3788 13.5244 26.7338 13.8792C27.0887 14.2339 27.3703 14.6551 27.5624 15.1186C27.7545 15.5821 27.8534 16.0788 27.8534 16.5805V27.243Z" stroke="#030E63" stroke-width="1.2" stroke-linecap="round" stroke-linejoin="round"/>
<path d="M24.0312 20.4068C26.1109 20.4068 27.7968 18.722 27.7968 16.6436C27.7968 14.5652 26.1109 12.8804 24.0312 12.8804C21.9515 12.8804 20.2656 14.5652 20.2656 16.6436C20.2656 18.722 21.9515 20.4068 24.0312 20.4068Z" stroke="#030E63" stroke-width="1.2" stroke-linecap="round" stroke-linejoin="round"/>
<path d="M24.0892 26.7869C24.1794 26.7869 24.2677 26.8136 24.3427 26.8637C24.4178 26.9139 24.4763 26.9851 24.5108 27.0685C24.5454 27.1518 24.5544 27.2435 24.5368 27.332C24.5192 27.4205 24.4757 27.5018 24.4119 27.5656C24.3481 27.6294 24.2667 27.6728 24.1782 27.6904C24.0897 27.708 23.9979 27.699 23.9145 27.6644C23.8311 27.6299 23.7598 27.5714 23.7096 27.4964C23.6595 27.4214 23.6327 27.3332 23.6327 27.243C23.632 27.1829 23.6432 27.1232 23.6659 27.0675C23.6886 27.0119 23.7222 26.9613 23.7647 26.9188C23.8072 26.8762 23.8579 26.8427 23.9136 26.82C23.9693 26.7974 24.029 26.7861 24.0892 26.7869ZM24.8309 25.196C24.4811 25.0709 24.1049 25.0385 23.7388 25.1019C23.3728 25.1652 23.0294 25.3223 22.7422 25.5577C22.4549 25.7931 22.2335 26.0989 22.0996 26.4452C21.9658 26.7915 21.9239 27.1665 21.9781 27.5338C22.0482 27.9927 22.2631 28.4172 22.5915 28.7454C22.92 29.0736 23.3447 29.2884 23.8039 29.3584C24.1039 29.3984 24.409 29.3736 24.6986 29.2857C24.9882 29.1978 25.2556 29.0488 25.4827 28.8489C25.7098 28.6489 25.8914 28.4026 26.0151 28.1266C26.1389 27.8505 26.202 27.5512 26.2002 27.2487C26.2273 26.8041 26.1081 26.3629 25.8609 25.9923C25.6137 25.6217 25.2519 25.342 24.8309 25.196Z" fill="#030E63"/>
<path d="M24.0344 24.278C24.5701 24.278 25.0043 23.844 25.0043 23.3087C25.0043 22.7733 24.5701 22.3394 24.0344 22.3394C23.4987 22.3394 23.0645 22.7733 23.0645 23.3087C23.0645 23.844 23.4987 24.278 24.0344 24.278Z" fill="#030E63"/>
<path d="M24.1467 17.613C24.6824 17.613 25.1166 17.179 25.1166 16.6436C25.1166 16.1083 24.6824 15.6743 24.1467 15.6743C23.611 15.6743 23.1768 16.1083 23.1768 16.6436C23.1768 17.179 23.611 17.613 24.1467 17.613Z" fill="#030E63"/>
</svg>
