<svg width="407" height="332" viewBox="0 0 407 332" fill="none" xmlns="http://www.w3.org/2000/svg">
<rect width="380" height="209" rx="10" fill="white"/>
<path d="M0 10C0 4.47715 4.47715 0 10 0H370C375.523 0 380 4.47715 380 10V141H0V10Z" fill="#A8B0BD"/>
<rect x="16" y="19" width="204" height="16" rx="8" fill="#C5CBD3"/>
<rect x="16" y="48" width="160" height="12" rx="6" fill="#C5CBD3"/>
<rect x="16" y="70" width="78" height="12" rx="6" fill="#C5CBD3"/>
<rect x="16" y="92" width="55" height="12" rx="6" fill="#C5CBD3"/>
<circle cx="41" cy="175" r="23.4" stroke="#A8B0BD" stroke-width="1.2"/>
<path d="M41.1264 190C45.0249 190 48.1852 183.284 48.1852 175C48.1852 166.716 45.0249 160 41.1264 160C37.2279 160 34.0676 166.716 34.0676 175C34.0676 183.284 37.2279 190 41.1264 190Z" stroke="#A8B0BD" stroke-width="1.2" stroke-linecap="round" stroke-linejoin="round"/>
<path d="M40.9999 181.864C49.2841 181.864 55.9998 178.677 55.9998 174.745C55.9998 170.814 49.2841 167.627 40.9999 167.627C32.7157 167.627 26 170.814 26 174.745C26 178.677 32.7157 181.864 40.9999 181.864Z" stroke="#A8B0BD" stroke-width="1.2" stroke-linecap="round" stroke-linejoin="round"/>
<path d="M41.0001 190C49.2844 190 56 183.284 56 175C56 166.716 49.2844 160 41.0001 160C32.7159 160 26.0002 166.716 26.0002 175C26.0002 183.284 32.7159 190 41.0001 190Z" stroke="#A8B0BD" stroke-width="1.2" stroke-linecap="round" stroke-linejoin="round"/>
<path d="M38.6481 171.612V178.364C38.6457 178.441 38.6646 178.517 38.7027 178.585C38.7408 178.652 38.7966 178.708 38.8642 178.747C38.9318 178.785 39.0087 178.804 39.0865 178.803C39.1644 178.801 39.2403 178.778 39.3062 178.737L44.5086 175.377C44.5669 175.333 44.6143 175.277 44.647 175.212C44.6796 175.147 44.6966 175.076 44.6966 175.003C44.6966 174.931 44.6796 174.86 44.647 174.795C44.6143 174.73 44.5669 174.674 44.5086 174.63L39.3062 171.27C39.2453 171.219 39.1704 171.187 39.0912 171.178C39.0119 171.17 38.9319 171.185 38.8613 171.221C38.7906 171.258 38.7326 171.315 38.6947 171.384C38.6567 171.454 38.6405 171.533 38.6481 171.612V171.612Z" fill="#A8B0BD"/>
<circle cx="99" cy="175" r="23.4" stroke="#A8B0BD" stroke-width="1.2"/>
<path d="M98.7795 188.091L112.884 178.663L112.81 169.382" stroke="#A8B0BD" stroke-width="1.2" stroke-linecap="round" stroke-linejoin="round"/>
<path d="M85.2632 168.977L85.3 178.184L98.7795 188.091" stroke="#A8B0BD" stroke-width="1.2" stroke-linecap="round" stroke-linejoin="round"/>
<path d="M98.7795 187.833V178.405" stroke="#A8B0BD" stroke-width="1.2" stroke-linecap="round" stroke-linejoin="round"/>
<path d="M94.4336 162.9L98.7427 166.363" stroke="#A8B0BD" stroke-width="1.2" stroke-linecap="round" stroke-linejoin="round"/>
<path d="M85.2632 168.977L98.7795 178.405L112.7 169.308" stroke="#A8B0BD" stroke-width="1.2" stroke-linecap="round" stroke-linejoin="round"/>
<path d="M98.7412 166.289V174.906" stroke="#A8B0BD" stroke-width="1.2" stroke-linecap="round" stroke-linejoin="round"/>
<path d="M98.7412 166.363L103.897 162.9" stroke="#A8B0BD" stroke-width="1.2" stroke-linecap="round" stroke-linejoin="round"/>
<path d="M112.809 169.382L103.897 162.864" stroke="#A8B0BD" stroke-width="1.2" stroke-linecap="round" stroke-linejoin="round"/>
<path d="M85.2263 168.977L94.3968 162.864" stroke="#A8B0BD" stroke-width="1.2" stroke-linecap="round" stroke-linejoin="round"/>
<path d="M112.846 178.552L103.897 172.034" stroke="#A8B0BD" stroke-width="1.2" stroke-linecap="round" stroke-linejoin="round"/>
<path d="M85.3013 178.074L94.5085 171.961" stroke="#A8B0BD" stroke-width="1.2" stroke-linecap="round" stroke-linejoin="round"/>
<path d="M94.5073 171.924L98.7428 174.906" stroke="#A8B0BD" stroke-width="1.2" stroke-linecap="round" stroke-linejoin="round"/>
<path d="M98.7412 174.906L103.897 171.997" stroke="#A8B0BD" stroke-width="1.2" stroke-linecap="round" stroke-linejoin="round"/>
<path d="M94.395 162.864L94.4318 171.96" stroke="#A8B0BD" stroke-width="1.2" stroke-linecap="round" stroke-linejoin="round"/>
<path d="M103.897 162.864V171.96" stroke="#A8B0BD" stroke-width="1.2" stroke-linecap="round" stroke-linejoin="round"/>
<path d="M101.76 186.066V179.988" stroke="#A8B0BD" stroke-width="1.2" stroke-linecap="round" stroke-linejoin="round"/>
<path d="M104.67 184.113L104.707 178.074" stroke="#A8B0BD" stroke-width="1.2" stroke-linecap="round" stroke-linejoin="round"/>
<path d="M101.76 179.988L104.67 178.074" stroke="#A8B0BD" stroke-width="1.2" stroke-linecap="round" stroke-linejoin="round"/>
<circle cx="157" cy="175" r="23.4" stroke="#A8B0BD" stroke-width="1.2"/>
<path d="M160.461 163.7H153.27" stroke="#A8B0BD" stroke-width="1.2" stroke-linecap="round" stroke-linejoin="round"/>
<path d="M160.598 186.298V181.637C160.598 181.637 164.746 181.671 165.334 186.298" stroke="#A8B0BD" stroke-width="1.2" stroke-linecap="round" stroke-linejoin="round"/>
<path d="M169 174.443H160.634" stroke="#A8B0BD" stroke-width="1.2" stroke-linecap="round" stroke-linejoin="round"/>
<path d="M160.634 171.976V176.84" stroke="#A8B0BD" stroke-width="1.2" stroke-linecap="round" stroke-linejoin="round"/>
<path d="M156.995 186.298V179.982H152.156C152.156 179.982 152.398 174.408 156.995 174.408V163.7" stroke="#A8B0BD" stroke-width="1.2" stroke-linecap="round" stroke-linejoin="round"/>
<path d="M146.935 167.247H145.449" stroke="#A8B0BD" stroke-width="1.2" stroke-linecap="round" stroke-linejoin="round"/>
<path d="M146.935 169.814H145.449" stroke="#A8B0BD" stroke-width="1.2" stroke-linecap="round" stroke-linejoin="round"/>
<path d="M146.935 172.416H145.449" stroke="#A8B0BD" stroke-width="1.2" stroke-linecap="round" stroke-linejoin="round"/>
<path d="M146.935 174.982H145.449" stroke="#A8B0BD" stroke-width="1.2" stroke-linecap="round" stroke-linejoin="round"/>
<path d="M146.935 177.719H145.449" stroke="#A8B0BD" stroke-width="1.2" stroke-linecap="round" stroke-linejoin="round"/>
<path d="M146.935 180.286H145.449" stroke="#A8B0BD" stroke-width="1.2" stroke-linecap="round" stroke-linejoin="round"/>
<path d="M146.935 182.853H145.449" stroke="#A8B0BD" stroke-width="1.2" stroke-linecap="round" stroke-linejoin="round"/>
<path d="M164.671 163.7H168.094C168.341 163.718 168.571 163.832 168.733 164.015C168.895 164.199 168.976 164.438 168.958 164.68V185.319C168.976 185.561 168.895 185.8 168.733 185.983C168.571 186.167 168.341 186.28 168.094 186.298H165.328" stroke="#A8B0BD" stroke-width="1.2" stroke-linecap="round" stroke-linejoin="round"/>
<path d="M160.629 186.298H145.867C145.619 186.28 145.389 186.167 145.227 185.983C145.065 185.8 144.984 185.561 145.002 185.319V164.68C144.984 164.438 145.065 164.199 145.227 164.015C145.389 163.832 145.619 163.718 145.867 163.7H149.047" stroke="#A8B0BD" stroke-width="1.2" stroke-linecap="round" stroke-linejoin="round"/>
<circle cx="215" cy="175" r="23.4" stroke="#A8B0BD" stroke-width="1.2"/>
<path d="M205.743 166.028V165.595C205.738 165.284 205.857 164.983 206.074 164.759C206.291 164.535 206.588 164.406 206.901 164.4H226.321C226.634 164.405 226.932 164.534 227.149 164.758C227.367 164.983 227.486 165.283 227.48 165.595V180.541C227.485 180.852 227.366 181.153 227.149 181.376C226.932 181.6 226.634 181.729 226.321 181.735H226.051" stroke="#A8B0BD" stroke-linejoin="round"/>
<path d="M204.132 167.402V167.101C204.127 166.79 204.246 166.489 204.463 166.265C204.68 166.041 204.977 165.913 205.29 165.907H224.711C225.023 165.913 225.321 166.041 225.538 166.265C225.755 166.489 225.874 166.79 225.868 167.101V182.047C225.871 182.201 225.843 182.354 225.787 182.498C225.73 182.641 225.646 182.772 225.538 182.883C225.431 182.994 225.302 183.083 225.16 183.145C225.018 183.206 224.865 183.239 224.711 183.242H224.383" stroke="#A8B0BD" stroke-linejoin="round"/>
<path d="M203.678 167.569H223.102C223.415 167.574 223.713 167.703 223.93 167.927C224.147 168.151 224.266 168.451 224.261 168.763V183.708C224.264 183.862 224.236 184.015 224.18 184.159C224.123 184.302 224.038 184.434 223.931 184.545C223.823 184.656 223.694 184.745 223.552 184.806C223.41 184.868 223.257 184.901 223.102 184.904H203.678C203.524 184.901 203.371 184.868 203.229 184.806C203.087 184.745 202.958 184.656 202.851 184.545C202.743 184.433 202.659 184.302 202.602 184.159C202.545 184.015 202.518 183.862 202.521 183.708V168.763C202.515 168.451 202.634 168.151 202.851 167.927C203.068 167.703 203.366 167.574 203.678 167.569V167.569Z" stroke="#A8B0BD" stroke-width="1.2" stroke-linejoin="round"/>
<mask id="path-50-inside-1_1150_7005" fill="white">
<path d="M204.902 174.998V170.458H205.842V172.28H207.931V170.458H208.871V174.998H207.931V173.143H205.842V174.998H204.902Z"/>
<path d="M209.696 174.998V170.458H211.441C211.778 170.458 212.094 170.516 212.388 170.633C212.682 170.75 212.935 170.909 213.147 171.113C213.363 171.316 213.532 171.558 213.653 171.839C213.778 172.12 213.841 172.421 213.841 172.741C213.841 173.056 213.778 173.353 213.653 173.629C213.532 173.906 213.363 174.146 213.147 174.349C212.935 174.548 212.682 174.706 212.388 174.823C212.094 174.939 211.778 174.998 211.441 174.998H209.696ZM211.435 171.294H210.637V174.161H211.435C211.634 174.161 211.819 174.124 211.992 174.051C212.17 173.977 212.323 173.878 212.453 173.752C212.583 173.623 212.684 173.471 212.758 173.298C212.831 173.126 212.868 172.94 212.868 172.741C212.868 172.537 212.831 172.347 212.758 172.17C212.684 171.993 212.583 171.839 212.453 171.709C212.323 171.58 212.17 171.478 211.992 171.405C211.819 171.331 211.634 171.294 211.435 171.294Z"/>
</mask>
<path d="M204.902 174.998V170.458H205.842V172.28H207.931V170.458H208.871V174.998H207.931V173.143H205.842V174.998H204.902Z" fill="#A8B0BD"/>
<path d="M209.696 174.998V170.458H211.441C211.778 170.458 212.094 170.516 212.388 170.633C212.682 170.75 212.935 170.909 213.147 171.113C213.363 171.316 213.532 171.558 213.653 171.839C213.778 172.12 213.841 172.421 213.841 172.741C213.841 173.056 213.778 173.353 213.653 173.629C213.532 173.906 213.363 174.146 213.147 174.349C212.935 174.548 212.682 174.706 212.388 174.823C212.094 174.939 211.778 174.998 211.441 174.998H209.696ZM211.435 171.294H210.637V174.161H211.435C211.634 174.161 211.819 174.124 211.992 174.051C212.17 173.977 212.323 173.878 212.453 173.752C212.583 173.623 212.684 173.471 212.758 173.298C212.831 173.126 212.868 172.94 212.868 172.741C212.868 172.537 212.831 172.347 212.758 172.17C212.684 171.993 212.583 171.839 212.453 171.709C212.323 171.58 212.17 171.478 211.992 171.405C211.819 171.331 211.634 171.294 211.435 171.294Z" fill="#A8B0BD"/>
<path d="M204.902 174.998H203.702V176.198H204.902V174.998ZM204.902 170.458V169.258H203.702V170.458H204.902ZM205.842 170.458H207.042V169.258H205.842V170.458ZM205.842 172.28H204.642V173.48H205.842V172.28ZM207.931 172.28V173.48H209.131V172.28H207.931ZM207.931 170.458V169.258H206.731V170.458H207.931ZM208.871 170.458H210.071V169.258H208.871V170.458ZM208.871 174.998V176.198H210.071V174.998H208.871ZM207.931 174.998H206.731V176.198H207.931V174.998ZM207.931 173.143H209.131V171.943H207.931V173.143ZM205.842 173.143V171.943H204.642V173.143H205.842ZM205.842 174.998V176.198H207.042V174.998H205.842ZM209.696 174.998H208.496V176.198H209.696V174.998ZM209.696 170.458V169.258H208.496V170.458H209.696ZM213.147 171.113L212.316 171.979L212.325 171.987L213.147 171.113ZM213.653 171.839L212.551 172.314L212.554 172.321L212.557 172.328L213.653 171.839ZM213.653 173.629L212.56 173.134L212.557 173.141L212.553 173.148L213.653 173.629ZM213.147 174.349L213.968 175.224L213.969 175.224L213.147 174.349ZM210.637 171.294V170.094H209.437V171.294H210.637ZM210.637 174.161H209.437V175.361H210.637V174.161ZM211.992 174.051L211.533 172.942L211.523 172.946L211.992 174.051ZM212.453 173.752L213.287 174.615L213.294 174.608L213.301 174.601L212.453 173.752ZM212.758 173.298L211.653 172.829L212.758 173.298ZM212.453 171.709L213.301 170.861L213.301 170.861L212.453 171.709ZM211.992 171.405L211.523 172.509L211.533 172.513L211.992 171.405ZM206.102 174.998V170.458H203.702V174.998H206.102ZM204.902 171.658H205.842V169.258H204.902V171.658ZM204.642 170.458V172.28H207.042V170.458H204.642ZM205.842 173.48H207.931V171.08H205.842V173.48ZM209.131 172.28V170.458H206.731V172.28H209.131ZM207.931 171.658H208.871V169.258H207.931V171.658ZM207.671 170.458V174.998H210.071V170.458H207.671ZM208.871 173.798H207.931V176.198H208.871V173.798ZM209.131 174.998V173.143H206.731V174.998H209.131ZM207.931 171.943H205.842V174.343H207.931V171.943ZM204.642 173.143V174.998H207.042V173.143H204.642ZM205.842 173.798H204.902V176.198H205.842V173.798ZM210.896 174.998V170.458H208.496V174.998H210.896ZM209.696 171.658H211.441V169.258H209.696V171.658ZM211.441 171.658C211.637 171.658 211.801 171.691 211.945 171.748L212.831 169.517C212.387 169.341 211.92 169.258 211.441 169.258V171.658ZM211.945 171.748C212.106 171.812 212.225 171.891 212.316 171.979L213.978 170.247C213.645 169.928 213.258 169.687 212.831 169.517L211.945 171.748ZM212.325 171.987C212.418 172.074 212.493 172.179 212.551 172.314L214.755 171.364C214.571 170.937 214.309 170.558 213.969 170.238L212.325 171.987ZM212.557 172.328C212.611 172.449 212.641 172.582 212.641 172.741H215.041C215.041 172.259 214.945 171.791 214.749 171.35L212.557 172.328ZM212.641 172.741C212.641 172.892 212.612 173.019 212.56 173.134L214.746 174.125C214.944 173.686 215.041 173.22 215.041 172.741H212.641ZM212.553 173.148C212.496 173.279 212.421 173.385 212.325 173.475L213.969 175.224C214.305 174.907 214.567 174.533 214.752 174.11L212.553 173.148ZM212.326 173.474C212.233 173.561 212.112 173.641 211.945 173.707L212.831 175.938C213.253 175.771 213.637 175.535 213.968 175.224L212.326 173.474ZM211.945 173.707C211.801 173.765 211.637 173.798 211.441 173.798V176.198C211.92 176.198 212.387 176.114 212.831 175.938L211.945 173.707ZM211.441 173.798H209.696V176.198H211.441V173.798ZM211.435 170.094H210.637V172.494H211.435V170.094ZM209.437 171.294V174.161H211.837V171.294H209.437ZM210.637 175.361H211.435V172.961H210.637V175.361ZM211.435 175.361C211.785 175.361 212.132 175.295 212.462 175.155L211.523 172.946C211.507 172.953 211.482 172.961 211.435 172.961V175.361ZM212.452 175.159C212.759 175.032 213.042 174.852 213.287 174.615L211.619 172.89C211.604 172.904 211.58 172.923 211.533 172.942L212.452 175.159ZM213.301 174.601C213.543 174.36 213.73 174.079 213.862 173.768L211.653 172.829C211.639 172.864 211.623 172.886 211.604 172.904L213.301 174.601ZM213.862 173.768C214.002 173.438 214.068 173.091 214.068 172.741H211.668C211.668 172.788 211.66 172.813 211.653 172.829L213.862 173.768ZM214.068 172.741C214.068 172.389 214.004 172.042 213.866 171.71L211.649 172.63C211.659 172.653 211.668 172.686 211.668 172.741H214.068ZM213.866 171.71C213.735 171.394 213.548 171.107 213.301 170.861L211.604 172.558C211.618 172.571 211.633 172.591 211.649 172.63L213.866 171.71ZM213.301 170.861C213.055 170.615 212.768 170.427 212.452 170.296L211.533 172.513C211.571 172.529 211.591 172.545 211.604 172.558L213.301 170.861ZM212.462 170.3C212.132 170.16 211.785 170.094 211.435 170.094V172.494C211.482 172.494 211.507 172.502 211.523 172.509L212.462 170.3Z" fill="#A8B0BD" mask="url(#path-50-inside-1_1150_7005)"/>
<path d="M204.574 182.558L211.368 176.953L215.759 181.352" stroke="#A8B0BD" stroke-width="1.2" stroke-linecap="round" stroke-linejoin="round"/>
<path d="M222.331 179.951L217.655 175.584L213.611 179.202" stroke="#A8B0BD" stroke-width="1.2" stroke-linecap="round" stroke-linejoin="round"/>
<line x1="249.5" y1="141" x2="249.5" y2="209" stroke="#A8B0BD"/>
<circle cx="283" cy="175" r="23.4" stroke="#A8B0BD" stroke-width="1.2"/>
<rect x="271" y="167" width="18.5085" height="15.8644" rx="2" stroke="#A8B0BD" stroke-width="1.2" stroke-linejoin="round"/>
<path d="M294.317 168.565L289.509 173.373V176.511L294.317 181.32C294.569 181.572 295 181.394 295 181.037V168.848C295 168.491 294.569 168.313 294.317 168.565Z" stroke="#A8B0BD" stroke-width="1.2" stroke-linecap="round" stroke-linejoin="round"/>
<path d="M283.789 175.109H276.715M280.252 171.572V178.646V171.572Z" stroke="#A8B0BD" stroke-width="1.2" stroke-linecap="round" stroke-linejoin="round"/>
<circle cx="341" cy="175" r="23.4" stroke="#A8B0BD" stroke-width="1.2"/>
<path d="M332.263 178.706C334.331 178.706 336.007 177.032 336.007 174.967C336.007 172.902 334.331 171.227 332.263 171.227C330.196 171.227 328.52 172.902 328.52 174.967C328.52 177.032 330.196 178.706 332.263 178.706Z" stroke="#A8B0BD" stroke-width="1.2" stroke-miterlimit="10"/>
<path d="M347.816 171.919C349.884 171.919 351.56 170.245 351.56 168.179C351.56 166.114 349.884 164.44 347.816 164.44C345.749 164.44 344.073 166.114 344.073 168.179C344.073 170.245 345.749 171.919 347.816 171.919Z" stroke="#A8B0BD" stroke-width="1.2" stroke-miterlimit="10"/>
<path d="M347.81 185.762C349.877 185.762 351.553 184.087 351.553 182.022C351.553 179.957 349.877 178.283 347.81 178.283C345.742 178.283 344.066 179.957 344.066 182.022C344.066 184.087 345.742 185.762 347.81 185.762Z" stroke="#A8B0BD" stroke-width="1.2" stroke-miterlimit="10"/>
<path d="M335.632 173.377L344.367 169.607" stroke="#A8B0BD" stroke-width="1.2" stroke-miterlimit="10"/>
<path d="M335.632 176.587L344.367 180.576" stroke="#A8B0BD" stroke-width="1.2" stroke-miterlimit="10"/>
<path d="M358.25 22.5C359.488 22.5 360.5 21.4875 360.5 20.25C360.5 19.0125 359.488 18 358.25 18C357.013 18 356 19.0125 356 20.25C356 21.4875 357.013 22.5 358.25 22.5ZM358.25 24.75C357.013 24.75 356 25.7625 356 27C356 28.2375 357.013 29.25 358.25 29.25C359.488 29.25 360.5 28.2375 360.5 27C360.5 25.7625 359.488 24.75 358.25 24.75ZM358.25 31.5C357.013 31.5 356 32.5125 356 33.75C356 34.9875 357.013 36 358.25 36C359.488 36 360.5 34.9875 360.5 33.75C360.5 32.5125 359.488 31.5 358.25 31.5Z" fill="white"/>
<rect x="197.5" y="45.5" width="209" height="286" rx="8.5" fill="white"/>
<path d="M225.808 68.0768H217.269C216.058 68.0768 215.077 69.0583 215.077 70.2691V78.8076C215.077 80.0183 216.058 80.9999 217.269 80.9999H225.808C227.018 80.9999 228 80.0183 228 78.8076V70.2691C228 69.0583 227.018 68.0768 225.808 68.0768Z" stroke="#6B748E" stroke-width="1.2" stroke-linejoin="round"/>
<path d="M224.904 68.0769L224.923 67.1538C224.921 66.5831 224.694 66.0362 224.29 65.6326C223.887 65.2291 223.34 65.0016 222.769 65H214.462C213.809 65.0019 213.184 65.2619 212.723 65.7231C212.262 66.1843 212.002 66.8093 212 67.4615V75.7692C212.002 76.34 212.229 76.8869 212.633 77.2904C213.036 77.694 213.583 77.9215 214.154 77.9231H215.077" stroke="#6B748E" stroke-width="1.2" stroke-linecap="round" stroke-linejoin="round"/>
<path d="M246.896 76.132C246.272 76.132 245.692 76.024 245.156 75.808C244.628 75.584 244.16 75.276 243.752 74.884C243.352 74.484 243.04 74.024 242.816 73.504C242.6 72.976 242.492 72.408 242.492 71.8C242.492 71.192 242.6 70.628 242.816 70.108C243.04 69.58 243.352 69.12 243.752 68.728C244.16 68.328 244.632 68.02 245.168 67.804C245.704 67.58 246.28 67.468 246.896 67.468C247.336 67.468 247.764 67.528 248.18 67.648C248.604 67.76 248.992 67.924 249.344 68.14C249.704 68.356 250.016 68.616 250.28 68.92L249.44 69.784C249.128 69.408 248.748 69.124 248.3 68.932C247.852 68.732 247.384 68.632 246.896 68.632C246.448 68.632 246.032 68.712 245.648 68.872C245.272 69.032 244.944 69.256 244.664 69.544C244.384 69.824 244.164 70.156 244.004 70.54C243.852 70.924 243.776 71.344 243.776 71.8C243.776 72.248 243.852 72.664 244.004 73.048C244.164 73.432 244.388 73.768 244.676 74.056C244.964 74.344 245.3 74.568 245.684 74.728C246.068 74.888 246.484 74.968 246.932 74.968C247.42 74.968 247.88 74.872 248.312 74.68C248.752 74.48 249.124 74.2 249.428 73.84L250.256 74.68C249.976 74.976 249.656 75.236 249.296 75.46C248.944 75.676 248.56 75.844 248.144 75.964C247.736 76.076 247.32 76.132 246.896 76.132ZM254.073 76.12C253.481 76.12 252.941 75.98 252.453 75.7C251.973 75.42 251.593 75.04 251.313 74.56C251.033 74.08 250.893 73.544 250.893 72.952C250.893 72.36 251.033 71.824 251.313 71.344C251.593 70.864 251.973 70.484 252.453 70.204C252.941 69.916 253.481 69.772 254.073 69.772C254.673 69.772 255.213 69.916 255.693 70.204C256.173 70.484 256.553 70.864 256.833 71.344C257.113 71.824 257.253 72.36 257.253 72.952C257.253 73.544 257.113 74.08 256.833 74.56C256.553 75.04 256.173 75.42 255.693 75.7C255.213 75.98 254.673 76.12 254.073 76.12ZM254.073 75.064C254.449 75.064 254.789 74.972 255.093 74.788C255.397 74.596 255.637 74.34 255.813 74.02C255.989 73.7 256.077 73.34 256.077 72.94C256.077 72.548 255.985 72.196 255.801 71.884C255.625 71.564 255.385 71.308 255.081 71.116C254.785 70.924 254.449 70.828 254.073 70.828C253.697 70.828 253.357 70.924 253.053 71.116C252.757 71.308 252.517 71.564 252.333 71.884C252.157 72.196 252.069 72.548 252.069 72.94C252.069 73.34 252.157 73.7 252.333 74.02C252.509 74.34 252.749 74.596 253.053 74.788C253.357 74.972 253.697 75.064 254.073 75.064ZM258.388 78.448V69.892H259.576V70.48C260.088 70.024 260.712 69.796 261.448 69.796C262.024 69.796 262.544 69.936 263.008 70.216C263.48 70.496 263.852 70.872 264.124 71.344C264.396 71.816 264.532 72.348 264.532 72.94C264.532 73.532 264.392 74.068 264.112 74.548C263.84 75.02 263.468 75.396 262.996 75.676C262.532 75.956 262.008 76.096 261.424 76.096C261.088 76.096 260.764 76.044 260.452 75.94C260.14 75.828 259.852 75.672 259.588 75.472V78.448H258.388ZM261.292 75.052C261.684 75.052 262.032 74.96 262.336 74.776C262.648 74.592 262.896 74.344 263.08 74.032C263.264 73.712 263.356 73.352 263.356 72.952C263.356 72.552 263.264 72.192 263.08 71.872C262.896 71.552 262.648 71.3 262.336 71.116C262.032 70.932 261.684 70.84 261.292 70.84C260.948 70.84 260.628 70.904 260.332 71.032C260.036 71.16 259.788 71.34 259.588 71.572V74.332C259.788 74.556 260.036 74.732 260.332 74.86C260.636 74.988 260.956 75.052 261.292 75.052ZM265.677 76V69.892H266.877V76H265.677ZM266.277 68.908C266.077 68.908 265.905 68.836 265.761 68.692C265.617 68.54 265.545 68.364 265.545 68.164C265.545 67.956 265.617 67.784 265.761 67.648C265.905 67.504 266.077 67.432 266.277 67.432C266.485 67.432 266.661 67.504 266.805 67.648C266.949 67.784 267.021 67.956 267.021 68.164C267.021 68.364 266.949 68.54 266.805 68.692C266.661 68.836 266.485 68.908 266.277 68.908ZM270.222 76.108C269.782 76.108 269.394 76.032 269.058 75.88C268.722 75.72 268.458 75.5 268.266 75.22C268.074 74.94 267.978 74.616 267.978 74.248C267.978 73.672 268.198 73.22 268.638 72.892C269.078 72.556 269.682 72.388 270.45 72.388C271.05 72.388 271.606 72.504 272.118 72.736V72.088C272.118 71.648 271.99 71.32 271.734 71.104C271.486 70.888 271.118 70.78 270.63 70.78C270.35 70.78 270.058 70.824 269.754 70.912C269.45 70.992 269.11 71.12 268.734 71.296L268.29 70.396C268.754 70.18 269.186 70.024 269.586 69.928C269.986 69.824 270.39 69.772 270.798 69.772C271.59 69.772 272.202 69.96 272.634 70.336C273.074 70.712 273.294 71.248 273.294 71.944V76H272.118V75.472C271.846 75.688 271.554 75.848 271.242 75.952C270.93 76.056 270.59 76.108 270.222 76.108ZM269.13 74.224C269.13 74.52 269.254 74.76 269.502 74.944C269.758 75.128 270.09 75.22 270.498 75.22C270.818 75.22 271.11 75.172 271.374 75.076C271.646 74.98 271.894 74.832 272.118 74.632V73.6C271.886 73.464 271.642 73.368 271.386 73.312C271.138 73.248 270.858 73.216 270.546 73.216C270.106 73.216 269.758 73.308 269.502 73.492C269.254 73.668 269.13 73.912 269.13 74.224ZM274.677 76V69.892H275.877V70.672C276.069 70.384 276.305 70.16 276.585 70C276.873 69.832 277.197 69.748 277.557 69.748C277.805 69.756 278.009 69.792 278.169 69.856V70.936C278.057 70.888 277.941 70.856 277.821 70.84C277.701 70.816 277.581 70.804 277.461 70.804C277.109 70.804 276.797 70.9 276.525 71.092C276.253 71.276 276.037 71.548 275.877 71.908V76H274.677ZM284.566 76.108C283.966 76.108 283.422 75.968 282.934 75.688C282.454 75.408 282.07 75.028 281.782 74.548C281.502 74.068 281.362 73.532 281.362 72.94C281.362 72.356 281.498 71.828 281.77 71.356C282.042 70.876 282.41 70.496 282.874 70.216C283.338 69.928 283.854 69.784 284.422 69.784C284.99 69.784 285.494 69.928 285.934 70.216C286.374 70.496 286.722 70.88 286.978 71.368C287.242 71.848 287.374 72.392 287.374 73V73.336H282.562C282.626 73.672 282.75 73.972 282.934 74.236C283.126 74.5 283.366 74.708 283.654 74.86C283.95 75.012 284.27 75.088 284.614 75.088C284.91 75.088 285.194 75.044 285.466 74.956C285.746 74.86 285.978 74.724 286.162 74.548L286.93 75.304C286.57 75.576 286.198 75.78 285.814 75.916C285.438 76.044 285.022 76.108 284.566 76.108ZM282.574 72.436H286.186C286.138 72.116 286.026 71.836 285.85 71.596C285.682 71.348 285.47 71.156 285.214 71.02C284.966 70.876 284.694 70.804 284.398 70.804C284.094 70.804 283.814 70.872 283.558 71.008C283.302 71.144 283.086 71.336 282.91 71.584C282.742 71.824 282.63 72.108 282.574 72.436ZM288.517 76V69.892H289.717V70.516C290.189 70.02 290.801 69.772 291.553 69.772C292.025 69.772 292.437 69.872 292.789 70.072C293.149 70.272 293.429 70.552 293.629 70.912C293.837 71.272 293.941 71.688 293.941 72.16V76H292.741V72.364C292.741 71.884 292.605 71.508 292.333 71.236C292.069 70.956 291.697 70.816 291.217 70.816C290.897 70.816 290.609 70.884 290.353 71.02C290.097 71.156 289.885 71.352 289.717 71.608V76H288.517ZM295.325 76V67.6L296.525 67.372V76H295.325ZM299.87 76.108C299.43 76.108 299.042 76.032 298.706 75.88C298.37 75.72 298.106 75.5 297.914 75.22C297.722 74.94 297.626 74.616 297.626 74.248C297.626 73.672 297.846 73.22 298.286 72.892C298.726 72.556 299.33 72.388 300.098 72.388C300.698 72.388 301.254 72.504 301.766 72.736V72.088C301.766 71.648 301.638 71.32 301.382 71.104C301.134 70.888 300.766 70.78 300.278 70.78C299.998 70.78 299.706 70.824 299.402 70.912C299.098 70.992 298.758 71.12 298.382 71.296L297.938 70.396C298.402 70.18 298.834 70.024 299.234 69.928C299.634 69.824 300.038 69.772 300.446 69.772C301.238 69.772 301.85 69.96 302.282 70.336C302.722 70.712 302.942 71.248 302.942 71.944V76H301.766V75.472C301.494 75.688 301.202 75.848 300.89 75.952C300.578 76.056 300.238 76.108 299.87 76.108ZM298.778 74.224C298.778 74.52 298.902 74.76 299.15 74.944C299.406 75.128 299.738 75.22 300.146 75.22C300.466 75.22 300.758 75.172 301.022 75.076C301.294 74.98 301.542 74.832 301.766 74.632V73.6C301.534 73.464 301.29 73.368 301.034 73.312C300.786 73.248 300.506 73.216 300.194 73.216C299.754 73.216 299.406 73.308 299.15 73.492C298.902 73.668 298.778 73.912 298.778 74.224ZM307.193 76.108C306.609 76.108 306.077 75.968 305.597 75.688C305.117 75.408 304.737 75.028 304.457 74.548C304.185 74.068 304.049 73.532 304.049 72.94C304.049 72.348 304.189 71.816 304.469 71.344C304.749 70.864 305.125 70.484 305.597 70.204C306.077 69.916 306.609 69.772 307.193 69.772C307.657 69.772 308.101 69.86 308.525 70.036C308.957 70.212 309.329 70.46 309.641 70.78L308.897 71.608C308.665 71.352 308.405 71.16 308.117 71.032C307.829 70.904 307.529 70.84 307.217 70.84C306.849 70.84 306.513 70.932 306.209 71.116C305.913 71.3 305.677 71.552 305.501 71.872C305.325 72.192 305.237 72.548 305.237 72.94C305.237 73.332 305.325 73.688 305.501 74.008C305.677 74.328 305.917 74.584 306.221 74.776C306.525 74.96 306.865 75.052 307.241 75.052C307.553 75.052 307.845 74.992 308.117 74.872C308.389 74.744 308.645 74.56 308.885 74.32L309.617 75.088C309.297 75.416 308.925 75.668 308.501 75.844C308.085 76.02 307.649 76.108 307.193 76.108ZM313.335 76.108C312.735 76.108 312.191 75.968 311.703 75.688C311.223 75.408 310.839 75.028 310.551 74.548C310.271 74.068 310.131 73.532 310.131 72.94C310.131 72.356 310.267 71.828 310.539 71.356C310.811 70.876 311.179 70.496 311.643 70.216C312.107 69.928 312.623 69.784 313.191 69.784C313.759 69.784 314.263 69.928 314.703 70.216C315.143 70.496 315.491 70.88 315.747 71.368C316.011 71.848 316.143 72.392 316.143 73V73.336H311.331C311.395 73.672 311.519 73.972 311.703 74.236C311.895 74.5 312.135 74.708 312.423 74.86C312.719 75.012 313.039 75.088 313.383 75.088C313.679 75.088 313.963 75.044 314.235 74.956C314.515 74.86 314.747 74.724 314.931 74.548L315.699 75.304C315.339 75.576 314.967 75.78 314.583 75.916C314.207 76.044 313.791 76.108 313.335 76.108ZM311.343 72.436H314.955C314.907 72.116 314.795 71.836 314.619 71.596C314.451 71.348 314.239 71.156 313.983 71.02C313.735 70.876 313.463 70.804 313.167 70.804C312.863 70.804 312.583 70.872 312.327 71.008C312.071 71.144 311.855 71.336 311.679 71.584C311.511 71.824 311.399 72.108 311.343 72.436ZM322.602 76.096C322.034 76.096 321.514 75.956 321.042 75.676C320.57 75.396 320.198 75.02 319.926 74.548C319.654 74.068 319.518 73.532 319.518 72.94C319.518 72.348 319.654 71.816 319.926 71.344C320.206 70.872 320.582 70.496 321.054 70.216C321.526 69.936 322.05 69.796 322.626 69.796C322.962 69.796 323.286 69.848 323.598 69.952C323.91 70.056 324.198 70.208 324.462 70.408V67.6L325.662 67.372V76H324.474V75.412C323.954 75.868 323.33 76.096 322.602 76.096ZM322.758 75.052C323.11 75.052 323.43 74.988 323.718 74.86C324.014 74.732 324.262 74.548 324.462 74.308V71.56C324.262 71.336 324.014 71.16 323.718 71.032C323.43 70.896 323.11 70.828 322.758 70.828C322.374 70.828 322.026 70.92 321.714 71.104C321.402 71.288 321.154 71.54 320.97 71.86C320.786 72.172 320.694 72.528 320.694 72.928C320.694 73.328 320.786 73.688 320.97 74.008C321.154 74.328 321.402 74.584 321.714 74.776C322.026 74.96 322.374 75.052 322.758 75.052ZM330.011 76.108C329.411 76.108 328.867 75.968 328.379 75.688C327.899 75.408 327.515 75.028 327.227 74.548C326.947 74.068 326.807 73.532 326.807 72.94C326.807 72.356 326.943 71.828 327.215 71.356C327.487 70.876 327.855 70.496 328.319 70.216C328.783 69.928 329.299 69.784 329.867 69.784C330.435 69.784 330.939 69.928 331.379 70.216C331.819 70.496 332.167 70.88 332.423 71.368C332.687 71.848 332.819 72.392 332.819 73V73.336H328.007C328.071 73.672 328.195 73.972 328.379 74.236C328.571 74.5 328.811 74.708 329.099 74.86C329.395 75.012 329.715 75.088 330.059 75.088C330.355 75.088 330.639 75.044 330.911 74.956C331.191 74.86 331.423 74.724 331.607 74.548L332.375 75.304C332.015 75.576 331.643 75.78 331.259 75.916C330.883 76.044 330.467 76.108 330.011 76.108ZM328.019 72.436H331.631C331.583 72.116 331.471 71.836 331.295 71.596C331.127 71.348 330.915 71.156 330.659 71.02C330.411 70.876 330.139 70.804 329.843 70.804C329.539 70.804 329.259 70.872 329.003 71.008C328.747 71.144 328.531 71.336 328.355 71.584C328.187 71.824 328.075 72.108 328.019 72.436ZM333.962 76V67.6L335.162 67.372V76H333.962ZM341.699 76.108C341.107 76.108 340.655 75.972 340.343 75.7C340.031 75.42 339.875 75.016 339.875 74.488V70.9H338.579V69.892H339.875V68.332L341.063 68.044V69.892H342.863V70.9H341.063V74.212C341.063 74.524 341.131 74.748 341.267 74.884C341.411 75.012 341.643 75.076 341.963 75.076C342.131 75.076 342.279 75.064 342.407 75.04C342.543 75.016 342.687 74.98 342.839 74.932V75.94C342.679 75.996 342.491 76.036 342.275 76.06C342.067 76.092 341.875 76.108 341.699 76.108ZM346.557 76.12C345.965 76.12 345.425 75.98 344.937 75.7C344.457 75.42 344.077 75.04 343.797 74.56C343.517 74.08 343.377 73.544 343.377 72.952C343.377 72.36 343.517 71.824 343.797 71.344C344.077 70.864 344.457 70.484 344.937 70.204C345.425 69.916 345.965 69.772 346.557 69.772C347.157 69.772 347.697 69.916 348.177 70.204C348.657 70.484 349.037 70.864 349.317 71.344C349.597 71.824 349.737 72.36 349.737 72.952C349.737 73.544 349.597 74.08 349.317 74.56C349.037 75.04 348.657 75.42 348.177 75.7C347.697 75.98 347.157 76.12 346.557 76.12ZM346.557 75.064C346.933 75.064 347.273 74.972 347.577 74.788C347.881 74.596 348.121 74.34 348.297 74.02C348.473 73.7 348.561 73.34 348.561 72.94C348.561 72.548 348.469 72.196 348.285 71.884C348.109 71.564 347.869 71.308 347.565 71.116C347.269 70.924 346.933 70.828 346.557 70.828C346.181 70.828 345.841 70.924 345.537 71.116C345.241 71.308 345.001 71.564 344.817 71.884C344.641 72.196 344.553 72.548 344.553 72.94C344.553 73.34 344.641 73.7 344.817 74.02C344.993 74.34 345.233 74.596 345.537 74.788C345.841 74.972 346.181 75.064 346.557 75.064ZM353.236 76.12C352.764 76.12 352.348 76.02 351.988 75.82C351.628 75.62 351.348 75.34 351.148 74.98C350.948 74.612 350.848 74.192 350.848 73.72V69.892H352.036V73.516C352.036 73.996 352.172 74.376 352.444 74.656C352.724 74.936 353.096 75.076 353.56 75.076C353.888 75.076 354.18 75.008 354.436 74.872C354.692 74.728 354.9 74.528 355.06 74.272V69.892H356.26V76H355.06V75.376C354.588 75.872 353.98 76.12 353.236 76.12ZM357.681 76V69.892H358.881V70.672C359.073 70.384 359.309 70.16 359.589 70C359.877 69.832 360.201 69.748 360.561 69.748C360.809 69.756 361.013 69.792 361.173 69.856V70.936C361.061 70.888 360.945 70.856 360.825 70.84C360.705 70.816 360.585 70.804 360.465 70.804C360.113 70.804 359.801 70.9 359.529 71.092C359.257 71.276 359.041 71.548 358.881 71.908V76H357.681Z" fill="white"/>
<rect x="244" y="66" width="129" height="13" rx="6.5" fill="#DFE3E7"/>
<path d="M220.077 116.166C222.46 116.166 224.391 112.062 224.391 107C224.391 101.937 222.46 97.8334 220.077 97.8334C217.695 97.8334 215.763 101.937 215.763 107C215.763 112.062 217.695 116.166 220.077 116.166Z" stroke="#6B748E" stroke-width="0.9" stroke-linecap="round" stroke-linejoin="round"/>
<path d="M220 111.195C225.062 111.195 229.166 109.247 229.166 106.844C229.166 104.442 225.062 102.494 220 102.494C214.937 102.494 210.833 104.442 210.833 106.844C210.833 109.247 214.937 111.195 220 111.195Z" stroke="#6B748E" stroke-width="0.9" stroke-linecap="round" stroke-linejoin="round"/>
<path d="M220 116.167C225.063 116.167 229.167 112.063 229.167 107C229.167 101.938 225.063 97.8339 220 97.8339C214.938 97.8339 210.833 101.938 210.833 107C210.833 112.063 214.938 116.167 220 116.167Z" stroke="#6B748E" stroke-width="0.9" stroke-linecap="round" stroke-linejoin="round"/>
<path d="M218.779 104.822V108.948C218.777 108.995 218.789 109.042 218.812 109.083C218.835 109.125 218.869 109.159 218.911 109.182C218.952 109.206 218.999 109.217 219.047 109.216C219.094 109.215 219.141 109.202 219.181 109.176L222.36 107.123C222.396 107.096 222.425 107.062 222.445 107.022C222.465 106.983 222.475 106.939 222.475 106.895C222.475 106.85 222.465 106.807 222.445 106.767C222.425 106.728 222.396 106.693 222.36 106.667L219.181 104.613C219.144 104.582 219.098 104.562 219.05 104.557C219.001 104.552 218.952 104.561 218.909 104.583C218.866 104.606 218.83 104.64 218.807 104.683C218.784 104.726 218.774 104.774 218.779 104.822V104.822Z" fill="#6B748E"/>
<path d="M247.444 112L244.012 103.6H245.368L248.212 110.752L251.104 103.6H252.4L248.92 112H247.444ZM255.23 112.108C254.63 112.108 254.086 111.968 253.598 111.688C253.118 111.408 252.734 111.028 252.446 110.548C252.166 110.068 252.026 109.532 252.026 108.94C252.026 108.356 252.162 107.828 252.434 107.356C252.706 106.876 253.074 106.496 253.538 106.216C254.002 105.928 254.518 105.784 255.086 105.784C255.654 105.784 256.158 105.928 256.598 106.216C257.038 106.496 257.386 106.88 257.642 107.368C257.906 107.848 258.038 108.392 258.038 109V109.336H253.226C253.29 109.672 253.414 109.972 253.598 110.236C253.79 110.5 254.03 110.708 254.318 110.86C254.614 111.012 254.934 111.088 255.278 111.088C255.574 111.088 255.858 111.044 256.13 110.956C256.41 110.86 256.642 110.724 256.826 110.548L257.594 111.304C257.234 111.576 256.862 111.78 256.478 111.916C256.102 112.044 255.686 112.108 255.23 112.108ZM253.238 108.436H256.85C256.802 108.116 256.69 107.836 256.514 107.596C256.346 107.348 256.134 107.156 255.878 107.02C255.63 106.876 255.358 106.804 255.062 106.804C254.758 106.804 254.478 106.872 254.222 107.008C253.966 107.144 253.75 107.336 253.574 107.584C253.406 107.824 253.294 108.108 253.238 108.436ZM259.181 112V105.892H260.381V106.672C260.573 106.384 260.809 106.16 261.089 106C261.377 105.832 261.701 105.748 262.061 105.748C262.309 105.756 262.513 105.792 262.673 105.856V106.936C262.561 106.888 262.445 106.856 262.325 106.84C262.205 106.816 262.085 106.804 261.965 106.804C261.613 106.804 261.301 106.9 261.029 107.092C260.757 107.276 260.541 107.548 260.381 107.908V112H259.181ZM268.758 112.108C268.166 112.108 267.714 111.972 267.402 111.7C267.09 111.42 266.934 111.016 266.934 110.488V106.9H265.638V105.892H266.934V104.332L268.122 104.044V105.892H269.922V106.9H268.122V110.212C268.122 110.524 268.19 110.748 268.326 110.884C268.47 111.012 268.702 111.076 269.022 111.076C269.19 111.076 269.338 111.064 269.466 111.04C269.602 111.016 269.746 110.98 269.898 110.932V111.94C269.738 111.996 269.55 112.036 269.334 112.06C269.126 112.092 268.934 112.108 268.758 112.108ZM273.616 112.12C273.024 112.12 272.484 111.98 271.996 111.7C271.516 111.42 271.136 111.04 270.856 110.56C270.576 110.08 270.436 109.544 270.436 108.952C270.436 108.36 270.576 107.824 270.856 107.344C271.136 106.864 271.516 106.484 271.996 106.204C272.484 105.916 273.024 105.772 273.616 105.772C274.216 105.772 274.756 105.916 275.236 106.204C275.716 106.484 276.096 106.864 276.376 107.344C276.656 107.824 276.796 108.36 276.796 108.952C276.796 109.544 276.656 110.08 276.376 110.56C276.096 111.04 275.716 111.42 275.236 111.7C274.756 111.98 274.216 112.12 273.616 112.12ZM273.616 111.064C273.992 111.064 274.332 110.972 274.636 110.788C274.94 110.596 275.18 110.34 275.356 110.02C275.532 109.7 275.62 109.34 275.62 108.94C275.62 108.548 275.528 108.196 275.344 107.884C275.168 107.564 274.928 107.308 274.624 107.116C274.328 106.924 273.992 106.828 273.616 106.828C273.24 106.828 272.9 106.924 272.596 107.116C272.3 107.308 272.06 107.564 271.876 107.884C271.7 108.196 271.612 108.548 271.612 108.94C271.612 109.34 271.7 109.7 271.876 110.02C272.052 110.34 272.292 110.596 272.596 110.788C272.9 110.972 273.24 111.064 273.616 111.064ZM280.295 112.12C279.823 112.12 279.407 112.02 279.047 111.82C278.687 111.62 278.407 111.34 278.207 110.98C278.007 110.612 277.907 110.192 277.907 109.72V105.892H279.095V109.516C279.095 109.996 279.231 110.376 279.503 110.656C279.783 110.936 280.155 111.076 280.619 111.076C280.947 111.076 281.239 111.008 281.495 110.872C281.751 110.728 281.959 110.528 282.119 110.272V105.892H283.319V112H282.119V111.376C281.647 111.872 281.039 112.12 280.295 112.12ZM284.739 112V105.892H285.939V106.672C286.131 106.384 286.367 106.16 286.647 106C286.935 105.832 287.259 105.748 287.619 105.748C287.867 105.756 288.071 105.792 288.231 105.856V106.936C288.119 106.888 288.003 106.856 287.883 106.84C287.763 106.816 287.643 106.804 287.523 106.804C287.171 106.804 286.859 106.9 286.587 107.092C286.315 107.276 286.099 107.548 285.939 107.908V112H284.739ZM293.668 112L291.028 105.892H292.348L294.256 110.464L296.164 105.892H297.436L294.82 112H293.668ZM298.181 112V105.892H299.381V112H298.181ZM298.781 104.908C298.581 104.908 298.409 104.836 298.265 104.692C298.121 104.54 298.049 104.364 298.049 104.164C298.049 103.956 298.121 103.784 298.265 103.648C298.409 103.504 298.581 103.432 298.781 103.432C298.989 103.432 299.165 103.504 299.309 103.648C299.453 103.784 299.525 103.956 299.525 104.164C299.525 104.364 299.453 104.54 299.309 104.692C299.165 104.836 298.989 104.908 298.781 104.908ZM300.794 112V105.892H301.994V106.672C302.186 106.384 302.422 106.16 302.702 106C302.99 105.832 303.314 105.748 303.674 105.748C303.922 105.756 304.126 105.792 304.286 105.856V106.936C304.174 106.888 304.058 106.856 303.938 106.84C303.818 106.816 303.698 106.804 303.578 106.804C303.226 106.804 302.914 106.9 302.642 107.092C302.37 107.276 302.154 107.548 301.994 107.908V112H300.794ZM307.863 112.108C307.271 112.108 306.819 111.972 306.507 111.7C306.195 111.42 306.039 111.016 306.039 110.488V106.9H304.743V105.892H306.039V104.332L307.227 104.044V105.892H309.027V106.9H307.227V110.212C307.227 110.524 307.295 110.748 307.431 110.884C307.575 111.012 307.807 111.076 308.127 111.076C308.295 111.076 308.443 111.064 308.571 111.04C308.707 111.016 308.851 110.98 309.003 110.932V111.94C308.843 111.996 308.655 112.036 308.439 112.06C308.231 112.092 308.039 112.108 307.863 112.108ZM312.275 112.12C311.803 112.12 311.387 112.02 311.027 111.82C310.667 111.62 310.387 111.34 310.187 110.98C309.987 110.612 309.887 110.192 309.887 109.72V105.892H311.075V109.516C311.075 109.996 311.211 110.376 311.483 110.656C311.763 110.936 312.135 111.076 312.599 111.076C312.927 111.076 313.219 111.008 313.475 110.872C313.731 110.728 313.939 110.528 314.099 110.272V105.892H315.299V112H314.099V111.376C313.627 111.872 313.019 112.12 312.275 112.12ZM318.652 112.108C318.212 112.108 317.824 112.032 317.488 111.88C317.152 111.72 316.888 111.5 316.696 111.22C316.504 110.94 316.408 110.616 316.408 110.248C316.408 109.672 316.628 109.22 317.068 108.892C317.508 108.556 318.112 108.388 318.88 108.388C319.48 108.388 320.036 108.504 320.548 108.736V108.088C320.548 107.648 320.42 107.32 320.164 107.104C319.916 106.888 319.548 106.78 319.06 106.78C318.78 106.78 318.488 106.824 318.184 106.912C317.88 106.992 317.54 107.12 317.164 107.296L316.72 106.396C317.184 106.18 317.616 106.024 318.016 105.928C318.416 105.824 318.82 105.772 319.228 105.772C320.02 105.772 320.632 105.96 321.064 106.336C321.504 106.712 321.724 107.248 321.724 107.944V112H320.548V111.472C320.276 111.688 319.984 111.848 319.672 111.952C319.36 112.056 319.02 112.108 318.652 112.108ZM317.56 110.224C317.56 110.52 317.684 110.76 317.932 110.944C318.188 111.128 318.52 111.22 318.928 111.22C319.248 111.22 319.54 111.172 319.804 111.076C320.076 110.98 320.324 110.832 320.548 110.632V109.6C320.316 109.464 320.072 109.368 319.816 109.312C319.568 109.248 319.288 109.216 318.976 109.216C318.536 109.216 318.188 109.308 317.932 109.492C317.684 109.668 317.56 109.912 317.56 110.224ZM323.106 112V103.6L324.306 103.372V112H323.106Z" fill="white"/>
<rect x="244" y="100" width="104" height="13" rx="6.5" fill="#DFE3E7"/>
<rect x="210.833" y="137.167" width="14.1384" height="12.1186" rx="2" stroke="#6B748E" stroke-width="1.2" stroke-linejoin="round"/>
<path d="M228.484 138.523L224.972 142.035V144.432L228.484 147.944C228.736 148.196 229.167 148.017 229.167 147.661V138.805C229.167 138.449 228.736 138.271 228.484 138.523Z" stroke="#6B748E" stroke-width="1.2" stroke-linecap="round" stroke-linejoin="round"/>
<path d="M220.602 143.361H215.198M217.9 140.659V146.063V140.659Z" stroke="#6B748E" stroke-width="1.2" stroke-linecap="round" stroke-linejoin="round"/>
<path d="M244.852 148V139.6H246.112V148H244.852ZM247.685 148V141.892H248.885V142.516C249.357 142.02 249.969 141.772 250.721 141.772C251.193 141.772 251.605 141.872 251.957 142.072C252.317 142.272 252.597 142.552 252.797 142.912C253.005 143.272 253.109 143.688 253.109 144.16V148H251.909V144.364C251.909 143.884 251.773 143.508 251.501 143.236C251.237 142.956 250.865 142.816 250.385 142.816C250.065 142.816 249.777 142.884 249.521 143.02C249.265 143.156 249.053 143.352 248.885 143.608V148H247.685ZM254.493 148V141.892H255.693V148H254.493ZM255.093 140.908C254.893 140.908 254.721 140.836 254.577 140.692C254.433 140.54 254.361 140.364 254.361 140.164C254.361 139.956 254.433 139.784 254.577 139.648C254.721 139.504 254.893 139.432 255.093 139.432C255.301 139.432 255.477 139.504 255.621 139.648C255.765 139.784 255.837 139.956 255.837 140.164C255.837 140.364 255.765 140.54 255.621 140.692C255.477 140.836 255.301 140.908 255.093 140.908ZM259.974 148.108C259.39 148.108 258.858 147.968 258.378 147.688C257.898 147.408 257.518 147.028 257.238 146.548C256.966 146.068 256.83 145.532 256.83 144.94C256.83 144.348 256.97 143.816 257.25 143.344C257.53 142.864 257.906 142.484 258.378 142.204C258.858 141.916 259.39 141.772 259.974 141.772C260.438 141.772 260.882 141.86 261.306 142.036C261.738 142.212 262.11 142.46 262.422 142.78L261.678 143.608C261.446 143.352 261.186 143.16 260.898 143.032C260.61 142.904 260.31 142.84 259.998 142.84C259.63 142.84 259.294 142.932 258.99 143.116C258.694 143.3 258.458 143.552 258.282 143.872C258.106 144.192 258.018 144.548 258.018 144.94C258.018 145.332 258.106 145.688 258.282 146.008C258.458 146.328 258.698 146.584 259.002 146.776C259.306 146.96 259.646 147.052 260.022 147.052C260.334 147.052 260.626 146.992 260.898 146.872C261.17 146.744 261.426 146.56 261.666 146.32L262.398 147.088C262.078 147.416 261.706 147.668 261.282 147.844C260.866 148.02 260.43 148.108 259.974 148.108ZM263.364 148V141.892H264.564V148H263.364ZM263.964 140.908C263.764 140.908 263.592 140.836 263.448 140.692C263.304 140.54 263.232 140.364 263.232 140.164C263.232 139.956 263.304 139.784 263.448 139.648C263.592 139.504 263.764 139.432 263.964 139.432C264.172 139.432 264.348 139.504 264.492 139.648C264.636 139.784 264.708 139.956 264.708 140.164C264.708 140.364 264.636 140.54 264.492 140.692C264.348 140.836 264.172 140.908 263.964 140.908ZM267.91 148.108C267.47 148.108 267.082 148.032 266.746 147.88C266.41 147.72 266.146 147.5 265.954 147.22C265.762 146.94 265.666 146.616 265.666 146.248C265.666 145.672 265.886 145.22 266.326 144.892C266.766 144.556 267.37 144.388 268.138 144.388C268.738 144.388 269.294 144.504 269.806 144.736V144.088C269.806 143.648 269.678 143.32 269.422 143.104C269.174 142.888 268.806 142.78 268.318 142.78C268.038 142.78 267.746 142.824 267.442 142.912C267.138 142.992 266.798 143.12 266.422 143.296L265.978 142.396C266.442 142.18 266.874 142.024 267.274 141.928C267.674 141.824 268.078 141.772 268.486 141.772C269.278 141.772 269.89 141.96 270.322 142.336C270.762 142.712 270.982 143.248 270.982 143.944V148H269.806V147.472C269.534 147.688 269.242 147.848 268.93 147.952C268.618 148.056 268.278 148.108 267.91 148.108ZM266.818 146.224C266.818 146.52 266.942 146.76 267.19 146.944C267.446 147.128 267.778 147.22 268.186 147.22C268.506 147.22 268.798 147.172 269.062 147.076C269.334 146.98 269.582 146.832 269.806 146.632V145.6C269.574 145.464 269.33 145.368 269.074 145.312C268.826 145.248 268.546 145.216 268.234 145.216C267.794 145.216 267.446 145.308 267.19 145.492C266.942 145.668 266.818 145.912 266.818 146.224ZM272.364 148V141.892H273.564V142.672C273.756 142.384 273.992 142.16 274.272 142C274.56 141.832 274.884 141.748 275.244 141.748C275.492 141.756 275.696 141.792 275.856 141.856V142.936C275.744 142.888 275.628 142.856 275.508 142.84C275.388 142.816 275.268 142.804 275.148 142.804C274.796 142.804 274.484 142.9 274.212 143.092C273.94 143.276 273.724 143.548 273.564 143.908V148H272.364ZM281.293 148L278.653 141.892H279.973L281.881 146.464L283.789 141.892H285.061L282.445 148H281.293ZM285.806 148V141.892H287.006V148H285.806ZM286.406 140.908C286.206 140.908 286.034 140.836 285.89 140.692C285.746 140.54 285.674 140.364 285.674 140.164C285.674 139.956 285.746 139.784 285.89 139.648C286.034 139.504 286.206 139.432 286.406 139.432C286.614 139.432 286.79 139.504 286.934 139.648C287.078 139.784 287.15 139.956 287.15 140.164C287.15 140.364 287.078 140.54 286.934 140.692C286.79 140.836 286.614 140.908 286.406 140.908ZM291.227 148.096C290.659 148.096 290.139 147.956 289.667 147.676C289.195 147.396 288.823 147.02 288.551 146.548C288.279 146.068 288.143 145.532 288.143 144.94C288.143 144.348 288.279 143.816 288.551 143.344C288.831 142.872 289.207 142.496 289.679 142.216C290.151 141.936 290.675 141.796 291.251 141.796C291.587 141.796 291.911 141.848 292.223 141.952C292.535 142.056 292.823 142.208 293.087 142.408V139.6L294.287 139.372V148H293.099V147.412C292.579 147.868 291.955 148.096 291.227 148.096ZM291.383 147.052C291.735 147.052 292.055 146.988 292.343 146.86C292.639 146.732 292.887 146.548 293.087 146.308V143.56C292.887 143.336 292.639 143.16 292.343 143.032C292.055 142.896 291.735 142.828 291.383 142.828C290.999 142.828 290.651 142.92 290.339 143.104C290.027 143.288 289.779 143.54 289.595 143.86C289.411 144.172 289.319 144.528 289.319 144.928C289.319 145.328 289.411 145.688 289.595 146.008C289.779 146.328 290.027 146.584 290.339 146.776C290.651 146.96 290.999 147.052 291.383 147.052ZM298.636 148.108C298.036 148.108 297.492 147.968 297.004 147.688C296.524 147.408 296.14 147.028 295.852 146.548C295.572 146.068 295.432 145.532 295.432 144.94C295.432 144.356 295.568 143.828 295.84 143.356C296.112 142.876 296.48 142.496 296.944 142.216C297.408 141.928 297.924 141.784 298.492 141.784C299.06 141.784 299.564 141.928 300.004 142.216C300.444 142.496 300.792 142.88 301.048 143.368C301.312 143.848 301.444 144.392 301.444 145V145.336H296.632C296.696 145.672 296.82 145.972 297.004 146.236C297.196 146.5 297.436 146.708 297.724 146.86C298.02 147.012 298.34 147.088 298.684 147.088C298.98 147.088 299.264 147.044 299.536 146.956C299.816 146.86 300.048 146.724 300.232 146.548L301 147.304C300.64 147.576 300.268 147.78 299.884 147.916C299.508 148.044 299.092 148.108 298.636 148.108ZM296.644 144.436H300.256C300.208 144.116 300.096 143.836 299.92 143.596C299.752 143.348 299.54 143.156 299.284 143.02C299.036 142.876 298.764 142.804 298.468 142.804C298.164 142.804 297.884 142.872 297.628 143.008C297.372 143.144 297.156 143.336 296.98 143.584C296.812 143.824 296.7 144.108 296.644 144.436ZM305.514 148.12C304.922 148.12 304.382 147.98 303.894 147.7C303.414 147.42 303.034 147.04 302.754 146.56C302.474 146.08 302.334 145.544 302.334 144.952C302.334 144.36 302.474 143.824 302.754 143.344C303.034 142.864 303.414 142.484 303.894 142.204C304.382 141.916 304.922 141.772 305.514 141.772C306.114 141.772 306.654 141.916 307.134 142.204C307.614 142.484 307.994 142.864 308.274 143.344C308.554 143.824 308.694 144.36 308.694 144.952C308.694 145.544 308.554 146.08 308.274 146.56C307.994 147.04 307.614 147.42 307.134 147.7C306.654 147.98 306.114 148.12 305.514 148.12ZM305.514 147.064C305.89 147.064 306.23 146.972 306.534 146.788C306.838 146.596 307.078 146.34 307.254 146.02C307.43 145.7 307.518 145.34 307.518 144.94C307.518 144.548 307.426 144.196 307.242 143.884C307.066 143.564 306.826 143.308 306.522 143.116C306.226 142.924 305.89 142.828 305.514 142.828C305.138 142.828 304.798 142.924 304.494 143.116C304.198 143.308 303.958 143.564 303.774 143.884C303.598 144.196 303.51 144.548 303.51 144.94C303.51 145.34 303.598 145.7 303.774 146.02C303.95 146.34 304.19 146.596 304.494 146.788C304.798 146.972 305.138 147.064 305.514 147.064ZM309.829 148V139.6L311.029 139.372V148H309.829ZM312.442 148V139.6L313.642 139.372V148H312.442ZM316.988 148.108C316.548 148.108 316.16 148.032 315.824 147.88C315.488 147.72 315.224 147.5 315.032 147.22C314.84 146.94 314.744 146.616 314.744 146.248C314.744 145.672 314.964 145.22 315.404 144.892C315.844 144.556 316.448 144.388 317.216 144.388C317.816 144.388 318.372 144.504 318.884 144.736V144.088C318.884 143.648 318.756 143.32 318.5 143.104C318.252 142.888 317.884 142.78 317.396 142.78C317.116 142.78 316.824 142.824 316.52 142.912C316.216 142.992 315.876 143.12 315.5 143.296L315.056 142.396C315.52 142.18 315.952 142.024 316.352 141.928C316.752 141.824 317.156 141.772 317.564 141.772C318.356 141.772 318.968 141.96 319.4 142.336C319.84 142.712 320.06 143.248 320.06 143.944V148H318.884V147.472C318.612 147.688 318.32 147.848 318.008 147.952C317.696 148.056 317.356 148.108 316.988 148.108ZM315.896 146.224C315.896 146.52 316.02 146.76 316.268 146.944C316.524 147.128 316.856 147.22 317.264 147.22C317.584 147.22 317.876 147.172 318.14 147.076C318.412 146.98 318.66 146.832 318.884 146.632V145.6C318.652 145.464 318.408 145.368 318.152 145.312C317.904 145.248 317.624 145.216 317.312 145.216C316.872 145.216 316.524 145.308 316.268 145.492C316.02 145.668 315.896 145.912 315.896 146.224ZM321.442 148V141.892H322.642V142.48C323.098 142.008 323.67 141.772 324.358 141.772C324.774 141.772 325.142 141.864 325.462 142.048C325.79 142.232 326.05 142.48 326.242 142.792C326.498 142.456 326.798 142.204 327.142 142.036C327.486 141.86 327.874 141.772 328.306 141.772C328.762 141.772 329.158 141.872 329.494 142.072C329.838 142.272 330.106 142.552 330.298 142.912C330.498 143.272 330.598 143.688 330.598 144.16V148H329.398V144.364C329.398 143.884 329.27 143.508 329.014 143.236C328.766 142.956 328.426 142.816 327.994 142.816C327.698 142.816 327.43 142.884 327.19 143.02C326.95 143.156 326.742 143.364 326.566 143.644C326.582 143.724 326.594 143.808 326.602 143.896C326.61 143.984 326.614 144.072 326.614 144.16V148H325.426V144.364C325.426 143.884 325.298 143.508 325.042 143.236C324.794 142.956 324.454 142.816 324.022 142.816C323.734 142.816 323.474 142.88 323.242 143.008C323.01 143.128 322.81 143.312 322.642 143.56V148H321.442ZM333.91 148.108C333.47 148.108 333.082 148.032 332.746 147.88C332.41 147.72 332.146 147.5 331.954 147.22C331.762 146.94 331.666 146.616 331.666 146.248C331.666 145.672 331.886 145.22 332.326 144.892C332.766 144.556 333.37 144.388 334.138 144.388C334.738 144.388 335.294 144.504 335.806 144.736V144.088C335.806 143.648 335.678 143.32 335.422 143.104C335.174 142.888 334.806 142.78 334.318 142.78C334.038 142.78 333.746 142.824 333.442 142.912C333.138 142.992 332.798 143.12 332.422 143.296L331.978 142.396C332.442 142.18 332.874 142.024 333.274 141.928C333.674 141.824 334.078 141.772 334.486 141.772C335.278 141.772 335.89 141.96 336.322 142.336C336.762 142.712 336.982 143.248 336.982 143.944V148H335.806V147.472C335.534 147.688 335.242 147.848 334.93 147.952C334.618 148.056 334.278 148.108 333.91 148.108ZM332.818 146.224C332.818 146.52 332.942 146.76 333.19 146.944C333.446 147.128 333.778 147.22 334.186 147.22C334.506 147.22 334.798 147.172 335.062 147.076C335.334 146.98 335.582 146.832 335.806 146.632V145.6C335.574 145.464 335.33 145.368 335.074 145.312C334.826 145.248 334.546 145.216 334.234 145.216C333.794 145.216 333.446 145.308 333.19 145.492C332.942 145.668 332.818 145.912 332.818 146.224ZM341.172 148.096C340.604 148.096 340.084 147.956 339.612 147.676C339.14 147.396 338.768 147.02 338.496 146.548C338.224 146.068 338.088 145.532 338.088 144.94C338.088 144.348 338.224 143.816 338.496 143.344C338.776 142.872 339.152 142.496 339.624 142.216C340.096 141.936 340.62 141.796 341.196 141.796C341.532 141.796 341.856 141.848 342.168 141.952C342.48 142.056 342.768 142.208 343.032 142.408V139.6L344.232 139.372V148H343.044V147.412C342.524 147.868 341.9 148.096 341.172 148.096ZM341.328 147.052C341.68 147.052 342 146.988 342.288 146.86C342.584 146.732 342.832 146.548 343.032 146.308V143.56C342.832 143.336 342.584 143.16 342.288 143.032C342 142.896 341.68 142.828 341.328 142.828C340.944 142.828 340.596 142.92 340.284 143.104C339.972 143.288 339.724 143.54 339.54 143.86C339.356 144.172 339.264 144.528 339.264 144.928C339.264 145.328 339.356 145.688 339.54 146.008C339.724 146.328 339.972 146.584 340.284 146.776C340.596 146.96 340.944 147.052 341.328 147.052ZM347.585 148.108C347.145 148.108 346.757 148.032 346.421 147.88C346.085 147.72 345.821 147.5 345.629 147.22C345.437 146.94 345.341 146.616 345.341 146.248C345.341 145.672 345.561 145.22 346.001 144.892C346.441 144.556 347.045 144.388 347.813 144.388C348.413 144.388 348.969 144.504 349.481 144.736V144.088C349.481 143.648 349.353 143.32 349.097 143.104C348.849 142.888 348.481 142.78 347.993 142.78C347.713 142.78 347.421 142.824 347.117 142.912C346.813 142.992 346.473 143.12 346.097 143.296L345.653 142.396C346.117 142.18 346.549 142.024 346.949 141.928C347.349 141.824 347.753 141.772 348.161 141.772C348.953 141.772 349.565 141.96 349.997 142.336C350.437 142.712 350.657 143.248 350.657 143.944V148H349.481V147.472C349.209 147.688 348.917 147.848 348.605 147.952C348.293 148.056 347.953 148.108 347.585 148.108ZM346.493 146.224C346.493 146.52 346.617 146.76 346.865 146.944C347.121 147.128 347.453 147.22 347.861 147.22C348.181 147.22 348.473 147.172 348.737 147.076C349.009 146.98 349.257 146.832 349.481 146.632V145.6C349.249 145.464 349.005 145.368 348.749 145.312C348.501 145.248 348.221 145.216 347.909 145.216C347.469 145.216 347.121 145.308 346.865 145.492C346.617 145.668 346.493 145.912 346.493 146.224Z" fill="white"/>
<rect x="244" y="136" width="122" height="13" rx="6.5" fill="#DFE3E7"/>
<rect x="209" y="166" width="186" height="26" rx="3.2" fill="#FDEAC8"/>
<path d="M222 180.446C222.876 180.446 223.587 179.736 223.587 178.859C223.587 177.982 222.876 177.272 222 177.272C221.123 177.272 220.412 177.982 220.412 178.859C220.412 179.736 221.123 180.446 222 180.446Z" fill="#404354"/>
<path d="M218.441 175.695C217.666 176.567 217.239 177.692 217.239 178.858C217.239 180.024 217.666 181.149 218.441 182.021M225.56 182.021C226.335 181.149 226.762 180.024 226.762 178.858C226.762 177.692 226.335 176.567 225.56 175.695M215.912 173.167C214.469 174.71 213.667 176.745 213.667 178.858C213.667 180.971 214.469 183.005 215.912 184.549M228.088 184.549C229.531 183.005 230.333 180.971 230.333 178.858C230.333 176.745 229.531 174.71 228.088 173.167" stroke="#404354" stroke-width="1.4" stroke-linecap="round" stroke-linejoin="round"/>
<path d="M242.852 183V174.6H244.112V183H242.852ZM245.685 183V176.892H246.885V177.516C247.357 177.02 247.969 176.772 248.721 176.772C249.193 176.772 249.605 176.872 249.957 177.072C250.317 177.272 250.597 177.552 250.797 177.912C251.005 178.272 251.109 178.688 251.109 179.16V183H249.909V179.364C249.909 178.884 249.773 178.508 249.501 178.236C249.237 177.956 248.865 177.816 248.385 177.816C248.065 177.816 247.777 177.884 247.521 178.02C247.265 178.156 247.053 178.352 246.885 178.608V183H245.685ZM252.493 183V176.892H253.693V183H252.493ZM253.093 175.908C252.893 175.908 252.721 175.836 252.577 175.692C252.433 175.54 252.361 175.364 252.361 175.164C252.361 174.956 252.433 174.784 252.577 174.648C252.721 174.504 252.893 174.432 253.093 174.432C253.301 174.432 253.477 174.504 253.621 174.648C253.765 174.784 253.837 174.956 253.837 175.164C253.837 175.364 253.765 175.54 253.621 175.692C253.477 175.836 253.301 175.908 253.093 175.908ZM257.974 183.108C257.39 183.108 256.858 182.968 256.378 182.688C255.898 182.408 255.518 182.028 255.238 181.548C254.966 181.068 254.83 180.532 254.83 179.94C254.83 179.348 254.97 178.816 255.25 178.344C255.53 177.864 255.906 177.484 256.378 177.204C256.858 176.916 257.39 176.772 257.974 176.772C258.438 176.772 258.882 176.86 259.306 177.036C259.738 177.212 260.11 177.46 260.422 177.78L259.678 178.608C259.446 178.352 259.186 178.16 258.898 178.032C258.61 177.904 258.31 177.84 257.998 177.84C257.63 177.84 257.294 177.932 256.99 178.116C256.694 178.3 256.458 178.552 256.282 178.872C256.106 179.192 256.018 179.548 256.018 179.94C256.018 180.332 256.106 180.688 256.282 181.008C256.458 181.328 256.698 181.584 257.002 181.776C257.306 181.96 257.646 182.052 258.022 182.052C258.334 182.052 258.626 181.992 258.898 181.872C259.17 181.744 259.426 181.56 259.666 181.32L260.398 182.088C260.078 182.416 259.706 182.668 259.282 182.844C258.866 183.02 258.43 183.108 257.974 183.108ZM261.364 183V176.892H262.564V183H261.364ZM261.964 175.908C261.764 175.908 261.592 175.836 261.448 175.692C261.304 175.54 261.232 175.364 261.232 175.164C261.232 174.956 261.304 174.784 261.448 174.648C261.592 174.504 261.764 174.432 261.964 174.432C262.172 174.432 262.348 174.504 262.492 174.648C262.636 174.784 262.708 174.956 262.708 175.164C262.708 175.364 262.636 175.54 262.492 175.692C262.348 175.836 262.172 175.908 261.964 175.908ZM265.91 183.108C265.47 183.108 265.082 183.032 264.746 182.88C264.41 182.72 264.146 182.5 263.954 182.22C263.762 181.94 263.666 181.616 263.666 181.248C263.666 180.672 263.886 180.22 264.326 179.892C264.766 179.556 265.37 179.388 266.138 179.388C266.738 179.388 267.294 179.504 267.806 179.736V179.088C267.806 178.648 267.678 178.32 267.422 178.104C267.174 177.888 266.806 177.78 266.318 177.78C266.038 177.78 265.746 177.824 265.442 177.912C265.138 177.992 264.798 178.12 264.422 178.296L263.978 177.396C264.442 177.18 264.874 177.024 265.274 176.928C265.674 176.824 266.078 176.772 266.486 176.772C267.278 176.772 267.89 176.96 268.322 177.336C268.762 177.712 268.982 178.248 268.982 178.944V183H267.806V182.472C267.534 182.688 267.242 182.848 266.93 182.952C266.618 183.056 266.278 183.108 265.91 183.108ZM264.818 181.224C264.818 181.52 264.942 181.76 265.19 181.944C265.446 182.128 265.778 182.22 266.186 182.22C266.506 182.22 266.798 182.172 267.062 182.076C267.334 181.98 267.582 181.832 267.806 181.632V180.6C267.574 180.464 267.33 180.368 267.074 180.312C266.826 180.248 266.546 180.216 266.234 180.216C265.794 180.216 265.446 180.308 265.19 180.492C264.942 180.668 264.818 180.912 264.818 181.224ZM270.364 183V176.892H271.564V177.672C271.756 177.384 271.992 177.16 272.272 177C272.56 176.832 272.884 176.748 273.244 176.748C273.492 176.756 273.696 176.792 273.856 176.856V177.936C273.744 177.888 273.628 177.856 273.508 177.84C273.388 177.816 273.268 177.804 273.148 177.804C272.796 177.804 272.484 177.9 272.212 178.092C271.94 178.276 271.724 178.548 271.564 178.908V183H270.364ZM281.477 183.132C280.869 183.132 280.301 183.024 279.773 182.808C279.245 182.584 278.777 182.276 278.369 181.884C277.969 181.484 277.657 181.024 277.433 180.504C277.217 179.976 277.109 179.408 277.109 178.8C277.109 178.192 277.217 177.628 277.433 177.108C277.657 176.58 277.969 176.12 278.369 175.728C278.777 175.328 279.245 175.02 279.773 174.804C280.301 174.58 280.869 174.468 281.477 174.468C282.085 174.468 282.653 174.58 283.181 174.804C283.717 175.02 284.185 175.328 284.585 175.728C284.985 176.12 285.297 176.58 285.521 177.108C285.745 177.628 285.857 178.192 285.857 178.8C285.857 179.408 285.745 179.976 285.521 180.504C285.297 181.024 284.985 181.484 284.585 181.884C284.185 182.276 283.717 182.584 283.181 182.808C282.653 183.024 282.085 183.132 281.477 183.132ZM281.489 181.968C281.921 181.968 282.321 181.888 282.689 181.728C283.065 181.568 283.393 181.348 283.673 181.068C283.953 180.78 284.173 180.444 284.333 180.06C284.493 179.668 284.573 179.248 284.573 178.8C284.573 178.344 284.493 177.924 284.333 177.54C284.173 177.156 283.953 176.824 283.673 176.544C283.393 176.256 283.065 176.032 282.689 175.872C282.321 175.712 281.921 175.632 281.489 175.632C281.049 175.632 280.641 175.712 280.265 175.872C279.889 176.032 279.561 176.256 279.281 176.544C279.001 176.824 278.781 177.156 278.621 177.54C278.469 177.924 278.393 178.344 278.393 178.8C278.393 179.248 278.469 179.668 278.621 180.06C278.781 180.444 279.001 180.78 279.281 181.068C279.561 181.348 279.889 181.568 280.265 181.728C280.641 181.888 281.049 181.968 281.489 181.968ZM287.04 185.448V176.892H288.228V177.48C288.74 177.024 289.364 176.796 290.1 176.796C290.676 176.796 291.196 176.936 291.66 177.216C292.132 177.496 292.504 177.872 292.776 178.344C293.048 178.816 293.184 179.348 293.184 179.94C293.184 180.532 293.044 181.068 292.764 181.548C292.492 182.02 292.12 182.396 291.648 182.676C291.184 182.956 290.66 183.096 290.076 183.096C289.74 183.096 289.416 183.044 289.104 182.94C288.792 182.828 288.504 182.672 288.24 182.472V185.448H287.04ZM289.944 182.052C290.336 182.052 290.684 181.96 290.988 181.776C291.3 181.592 291.548 181.344 291.732 181.032C291.916 180.712 292.008 180.352 292.008 179.952C292.008 179.552 291.916 179.192 291.732 178.872C291.548 178.552 291.3 178.3 290.988 178.116C290.684 177.932 290.336 177.84 289.944 177.84C289.6 177.84 289.28 177.904 288.984 178.032C288.688 178.16 288.44 178.34 288.24 178.572V181.332C288.44 181.556 288.688 181.732 288.984 181.86C289.288 181.988 289.608 182.052 289.944 182.052ZM297.257 183.108C296.657 183.108 296.113 182.968 295.625 182.688C295.145 182.408 294.761 182.028 294.473 181.548C294.193 181.068 294.053 180.532 294.053 179.94C294.053 179.356 294.189 178.828 294.461 178.356C294.733 177.876 295.101 177.496 295.565 177.216C296.029 176.928 296.545 176.784 297.113 176.784C297.681 176.784 298.185 176.928 298.625 177.216C299.065 177.496 299.413 177.88 299.669 178.368C299.933 178.848 300.065 179.392 300.065 180V180.336H295.253C295.317 180.672 295.441 180.972 295.625 181.236C295.817 181.5 296.057 181.708 296.345 181.86C296.641 182.012 296.961 182.088 297.305 182.088C297.601 182.088 297.885 182.044 298.157 181.956C298.437 181.86 298.669 181.724 298.853 181.548L299.621 182.304C299.261 182.576 298.889 182.78 298.505 182.916C298.129 183.044 297.713 183.108 297.257 183.108ZM295.265 179.436H298.877C298.829 179.116 298.717 178.836 298.541 178.596C298.373 178.348 298.161 178.156 297.905 178.02C297.657 177.876 297.385 177.804 297.089 177.804C296.785 177.804 296.505 177.872 296.249 178.008C295.993 178.144 295.777 178.336 295.601 178.584C295.433 178.824 295.321 179.108 295.265 179.436ZM301.208 183V176.892H302.408V177.516C302.88 177.02 303.492 176.772 304.244 176.772C304.716 176.772 305.128 176.872 305.48 177.072C305.84 177.272 306.12 177.552 306.32 177.912C306.528 178.272 306.632 178.688 306.632 179.16V183H305.432V179.364C305.432 178.884 305.296 178.508 305.024 178.236C304.76 177.956 304.388 177.816 303.908 177.816C303.588 177.816 303.3 177.884 303.044 178.02C302.788 178.156 302.576 178.352 302.408 178.608V183H301.208ZM310.668 183V174.6H311.928V178.2H316.392V174.6H317.652V183H316.392V179.34H311.928V183H310.668ZM322.124 183.12C321.532 183.12 320.992 182.98 320.504 182.7C320.024 182.42 319.644 182.04 319.364 181.56C319.084 181.08 318.944 180.544 318.944 179.952C318.944 179.36 319.084 178.824 319.364 178.344C319.644 177.864 320.024 177.484 320.504 177.204C320.992 176.916 321.532 176.772 322.124 176.772C322.724 176.772 323.264 176.916 323.744 177.204C324.224 177.484 324.604 177.864 324.884 178.344C325.164 178.824 325.304 179.36 325.304 179.952C325.304 180.544 325.164 181.08 324.884 181.56C324.604 182.04 324.224 182.42 323.744 182.7C323.264 182.98 322.724 183.12 322.124 183.12ZM322.124 182.064C322.5 182.064 322.84 181.972 323.144 181.788C323.448 181.596 323.688 181.34 323.864 181.02C324.04 180.7 324.128 180.34 324.128 179.94C324.128 179.548 324.036 179.196 323.852 178.884C323.676 178.564 323.436 178.308 323.132 178.116C322.836 177.924 322.5 177.828 322.124 177.828C321.748 177.828 321.408 177.924 321.104 178.116C320.808 178.308 320.568 178.564 320.384 178.884C320.208 179.196 320.12 179.548 320.12 179.94C320.12 180.34 320.208 180.7 320.384 181.02C320.56 181.34 320.8 181.596 321.104 181.788C321.408 181.972 321.748 182.064 322.124 182.064ZM328.802 183.12C328.33 183.12 327.914 183.02 327.554 182.82C327.194 182.62 326.914 182.34 326.714 181.98C326.514 181.612 326.414 181.192 326.414 180.72V176.892H327.602V180.516C327.602 180.996 327.738 181.376 328.01 181.656C328.29 181.936 328.662 182.076 329.126 182.076C329.454 182.076 329.746 182.008 330.002 181.872C330.258 181.728 330.466 181.528 330.626 181.272V176.892H331.826V183H330.626V182.376C330.154 182.872 329.546 183.12 328.802 183.12ZM335.347 183.12C334.819 183.12 334.323 183.044 333.859 182.892C333.403 182.732 333.007 182.508 332.671 182.22L333.331 181.428C333.643 181.676 333.963 181.868 334.291 182.004C334.627 182.132 334.967 182.196 335.311 182.196C335.743 182.196 336.095 182.112 336.367 181.944C336.639 181.776 336.775 181.556 336.775 181.284C336.775 181.06 336.695 180.884 336.535 180.756C336.375 180.628 336.127 180.54 335.791 180.492L334.687 180.336C334.079 180.248 333.623 180.06 333.319 179.772C333.015 179.484 332.863 179.1 332.863 178.62C332.863 178.252 332.963 177.932 333.163 177.66C333.363 177.38 333.643 177.164 334.003 177.012C334.363 176.852 334.783 176.772 335.263 176.772C335.703 176.772 336.127 176.836 336.535 176.964C336.943 177.092 337.335 177.292 337.711 177.564L337.099 178.356C336.763 178.132 336.435 177.968 336.115 177.864C335.803 177.76 335.487 177.708 335.167 177.708C334.799 177.708 334.503 177.788 334.279 177.948C334.055 178.1 333.943 178.3 333.943 178.548C333.943 178.772 334.019 178.948 334.171 179.076C334.331 179.196 334.591 179.28 334.951 179.328L336.055 179.484C336.663 179.572 337.123 179.76 337.435 180.048C337.747 180.328 337.903 180.708 337.903 181.188C337.903 181.556 337.791 181.888 337.567 182.184C337.343 182.472 337.039 182.7 336.655 182.868C336.271 183.036 335.835 183.12 335.347 183.12ZM341.812 183.108C341.212 183.108 340.668 182.968 340.18 182.688C339.7 182.408 339.316 182.028 339.028 181.548C338.748 181.068 338.608 180.532 338.608 179.94C338.608 179.356 338.744 178.828 339.016 178.356C339.288 177.876 339.656 177.496 340.12 177.216C340.584 176.928 341.1 176.784 341.668 176.784C342.236 176.784 342.74 176.928 343.18 177.216C343.62 177.496 343.968 177.88 344.224 178.368C344.488 178.848 344.62 179.392 344.62 180V180.336H339.808C339.872 180.672 339.996 180.972 340.18 181.236C340.372 181.5 340.612 181.708 340.9 181.86C341.196 182.012 341.516 182.088 341.86 182.088C342.156 182.088 342.44 182.044 342.712 181.956C342.992 181.86 343.224 181.724 343.408 181.548L344.176 182.304C343.816 182.576 343.444 182.78 343.06 182.916C342.684 183.044 342.268 183.108 341.812 183.108ZM339.82 179.436H343.432C343.384 179.116 343.272 178.836 343.096 178.596C342.928 178.348 342.716 178.156 342.46 178.02C342.212 177.876 341.94 177.804 341.644 177.804C341.34 177.804 341.06 177.872 340.804 178.008C340.548 178.144 340.332 178.336 340.156 178.584C339.988 178.824 339.876 179.108 339.82 179.436Z" fill="#FDEAC8"/>
<rect x="243.5" y="173" width="130" height="13" rx="6.5" fill="#FCD49C"/>
<rect x="209" y="166" width="186" height="26" rx="3.2" stroke="#FDEAC8" stroke-width="6"/>
<line x1="198" y1="204.5" x2="406" y2="204.5" stroke="#C5CBD3"/>
<path fill-rule="evenodd" clip-rule="evenodd" d="M212.533 239.328L216.251 238.915L225 230.164C225.153 230.011 225.153 229.763 225 229.611L221.387 225.996C221.234 225.844 220.986 225.844 220.834 225.996L212.084 234.748L211.672 238.466C211.616 238.963 212.036 239.384 212.533 239.328ZM213.278 235.321L221.11 227.488L223.509 229.887L215.677 237.721L212.979 238.02L213.278 235.321ZM226.993 225.963L225.038 224.007C224.919 223.888 224.719 223.884 224.592 224.009C224.592 224.01 224.592 224.01 224.591 224.01L223.783 224.818L226.182 227.218L226.99 226.41C226.99 226.409 226.99 226.409 226.991 226.409C227.116 226.282 227.112 226.082 226.993 225.963ZM227.877 227.291L226.459 228.709C226.306 228.861 226.058 228.861 225.906 228.709L222.292 225.095C222.14 224.943 222.14 224.694 222.292 224.542L223.71 223.123C224.323 222.514 225.313 222.514 225.922 223.123L227.877 225.079C228.486 225.688 228.486 226.678 227.877 227.291Z" fill="#6B748E"/>
<path d="M244.852 236V227.6H251.044V228.704H246.112V231.224H249.352V232.292H246.112V234.896H251.092V236H244.852ZM254.735 236.096C254.167 236.096 253.647 235.956 253.175 235.676C252.703 235.396 252.331 235.02 252.059 234.548C251.787 234.068 251.651 233.532 251.651 232.94C251.651 232.348 251.787 231.816 252.059 231.344C252.339 230.872 252.715 230.496 253.187 230.216C253.659 229.936 254.183 229.796 254.759 229.796C255.095 229.796 255.419 229.848 255.731 229.952C256.043 230.056 256.331 230.208 256.595 230.408V227.6L257.795 227.372V236H256.607V235.412C256.087 235.868 255.463 236.096 254.735 236.096ZM254.891 235.052C255.243 235.052 255.563 234.988 255.851 234.86C256.147 234.732 256.395 234.548 256.595 234.308V231.56C256.395 231.336 256.147 231.16 255.851 231.032C255.563 230.896 255.243 230.828 254.891 230.828C254.507 230.828 254.159 230.92 253.847 231.104C253.535 231.288 253.287 231.54 253.103 231.86C252.919 232.172 252.827 232.528 252.827 232.928C252.827 233.328 252.919 233.688 253.103 234.008C253.287 234.328 253.535 234.584 253.847 234.776C254.159 234.96 254.507 235.052 254.891 235.052ZM259.216 236V229.892H260.416V236H259.216ZM259.816 228.908C259.616 228.908 259.444 228.836 259.3 228.692C259.156 228.54 259.084 228.364 259.084 228.164C259.084 227.956 259.156 227.784 259.3 227.648C259.444 227.504 259.616 227.432 259.816 227.432C260.024 227.432 260.2 227.504 260.344 227.648C260.488 227.784 260.56 227.956 260.56 228.164C260.56 228.364 260.488 228.54 260.344 228.692C260.2 228.836 260.024 228.908 259.816 228.908ZM264.445 236.108C263.853 236.108 263.401 235.972 263.089 235.7C262.777 235.42 262.621 235.016 262.621 234.488V230.9H261.325V229.892H262.621V228.332L263.809 228.044V229.892H265.609V230.9H263.809V234.212C263.809 234.524 263.877 234.748 264.013 234.884C264.157 235.012 264.389 235.076 264.709 235.076C264.877 235.076 265.025 235.064 265.153 235.04C265.289 235.016 265.433 234.98 265.585 234.932V235.94C265.425 235.996 265.237 236.036 265.021 236.06C264.813 236.092 264.621 236.108 264.445 236.108ZM268.425 236.108C267.985 236.108 267.597 236.032 267.261 235.88C266.925 235.72 266.661 235.5 266.469 235.22C266.277 234.94 266.181 234.616 266.181 234.248C266.181 233.672 266.401 233.22 266.841 232.892C267.281 232.556 267.885 232.388 268.653 232.388C269.253 232.388 269.809 232.504 270.321 232.736V232.088C270.321 231.648 270.193 231.32 269.937 231.104C269.689 230.888 269.321 230.78 268.833 230.78C268.553 230.78 268.261 230.824 267.957 230.912C267.653 230.992 267.313 231.12 266.937 231.296L266.493 230.396C266.957 230.18 267.389 230.024 267.789 229.928C268.189 229.824 268.593 229.772 269.001 229.772C269.793 229.772 270.405 229.96 270.837 230.336C271.277 230.712 271.497 231.248 271.497 231.944V236H270.321V235.472C270.049 235.688 269.757 235.848 269.445 235.952C269.133 236.056 268.793 236.108 268.425 236.108ZM267.333 234.224C267.333 234.52 267.457 234.76 267.705 234.944C267.961 235.128 268.293 235.22 268.701 235.22C269.021 235.22 269.313 235.172 269.577 235.076C269.849 234.98 270.097 234.832 270.321 234.632V233.6C270.089 233.464 269.845 233.368 269.589 233.312C269.341 233.248 269.061 233.216 268.749 233.216C268.309 233.216 267.961 233.308 267.705 233.492C267.457 233.668 267.333 233.912 267.333 234.224ZM272.88 236V229.892H274.08V230.672C274.272 230.384 274.508 230.16 274.788 230C275.076 229.832 275.4 229.748 275.76 229.748C276.008 229.756 276.212 229.792 276.372 229.856V230.936C276.26 230.888 276.144 230.856 276.024 230.84C275.904 230.816 275.784 230.804 275.664 230.804C275.312 230.804 275 230.9 274.728 231.092C274.456 231.276 274.24 231.548 274.08 231.908V236H272.88ZM282.457 236.108C281.865 236.108 281.413 235.972 281.101 235.7C280.789 235.42 280.633 235.016 280.633 234.488V230.9H279.337V229.892H280.633V228.332L281.821 228.044V229.892H283.621V230.9H281.821V234.212C281.821 234.524 281.889 234.748 282.025 234.884C282.169 235.012 282.401 235.076 282.721 235.076C282.889 235.076 283.037 235.064 283.165 235.04C283.301 235.016 283.445 234.98 283.597 234.932V235.94C283.437 235.996 283.249 236.036 283.033 236.06C282.825 236.092 282.633 236.108 282.457 236.108ZM287.315 236.12C286.723 236.12 286.183 235.98 285.695 235.7C285.215 235.42 284.835 235.04 284.555 234.56C284.275 234.08 284.135 233.544 284.135 232.952C284.135 232.36 284.275 231.824 284.555 231.344C284.835 230.864 285.215 230.484 285.695 230.204C286.183 229.916 286.723 229.772 287.315 229.772C287.915 229.772 288.455 229.916 288.935 230.204C289.415 230.484 289.795 230.864 290.075 231.344C290.355 231.824 290.495 232.36 290.495 232.952C290.495 233.544 290.355 234.08 290.075 234.56C289.795 235.04 289.415 235.42 288.935 235.7C288.455 235.98 287.915 236.12 287.315 236.12ZM287.315 235.064C287.691 235.064 288.031 234.972 288.335 234.788C288.639 234.596 288.879 234.34 289.055 234.02C289.231 233.7 289.319 233.34 289.319 232.94C289.319 232.548 289.227 232.196 289.043 231.884C288.867 231.564 288.627 231.308 288.323 231.116C288.027 230.924 287.691 230.828 287.315 230.828C286.939 230.828 286.599 230.924 286.295 231.116C285.999 231.308 285.759 231.564 285.575 231.884C285.399 232.196 285.311 232.548 285.311 232.94C285.311 233.34 285.399 233.7 285.575 234.02C285.751 234.34 285.991 234.596 286.295 234.788C286.599 234.972 286.939 235.064 287.315 235.064ZM293.994 236.12C293.522 236.12 293.106 236.02 292.746 235.82C292.386 235.62 292.106 235.34 291.906 234.98C291.706 234.612 291.606 234.192 291.606 233.72V229.892H292.794V233.516C292.794 233.996 292.93 234.376 293.202 234.656C293.482 234.936 293.854 235.076 294.318 235.076C294.646 235.076 294.938 235.008 295.194 234.872C295.45 234.728 295.658 234.528 295.818 234.272V229.892H297.018V236H295.818V235.376C295.346 235.872 294.738 236.12 293.994 236.12ZM298.438 236V229.892H299.638V230.672C299.83 230.384 300.066 230.16 300.346 230C300.634 229.832 300.958 229.748 301.318 229.748C301.566 229.756 301.77 229.792 301.93 229.856V230.936C301.818 230.888 301.702 230.856 301.582 230.84C301.462 230.816 301.342 230.804 301.222 230.804C300.87 230.804 300.558 230.9 300.286 231.092C300.014 231.276 299.798 231.548 299.638 231.908V236H298.438Z" fill="white"/>
<rect x="244" y="224" width="90" height="13" rx="6.5" fill="#DFE3E7"/>
<path d="M227.167 265.552V273.667C227.167 274.197 226.956 274.706 226.581 275.081C226.206 275.456 225.697 275.667 225.167 275.667H215.833C215.303 275.667 214.794 275.456 214.419 275.081C214.044 274.706 213.833 274.197 213.833 273.667V260.333C213.833 259.803 214.044 259.294 214.419 258.919C214.794 258.544 215.303 258.333 215.833 258.333H219.948C220.301 258.333 220.64 258.474 220.89 258.724L226.776 264.61C227.026 264.86 227.167 265.199 227.167 265.552Z" stroke="#6B748E" stroke-width="1.2" stroke-linejoin="round"/>
<path d="M217.167 271.667H223.833M220.5 258.667V263.667C220.5 264.02 220.64 264.36 220.89 264.61C221.14 264.86 221.48 265 221.833 265H226.833L220.5 258.667ZM217.167 268.333H223.833H217.167Z" stroke="#6B748E" stroke-width="1.2" stroke-linecap="round" stroke-linejoin="round"/>
<path d="M244.352 272V263.6H250.544V264.704H245.612V267.224H248.852V268.292H245.612V270.896H250.592V272H244.352ZM254.235 272.096C253.667 272.096 253.147 271.956 252.675 271.676C252.203 271.396 251.831 271.02 251.559 270.548C251.287 270.068 251.151 269.532 251.151 268.94C251.151 268.348 251.287 267.816 251.559 267.344C251.839 266.872 252.215 266.496 252.687 266.216C253.159 265.936 253.683 265.796 254.259 265.796C254.595 265.796 254.919 265.848 255.231 265.952C255.543 266.056 255.831 266.208 256.095 266.408V263.6L257.295 263.372V272H256.107V271.412C255.587 271.868 254.963 272.096 254.235 272.096ZM254.391 271.052C254.743 271.052 255.063 270.988 255.351 270.86C255.647 270.732 255.895 270.548 256.095 270.308V267.56C255.895 267.336 255.647 267.16 255.351 267.032C255.063 266.896 254.743 266.828 254.391 266.828C254.007 266.828 253.659 266.92 253.347 267.104C253.035 267.288 252.787 267.54 252.603 267.86C252.419 268.172 252.327 268.528 252.327 268.928C252.327 269.328 252.419 269.688 252.603 270.008C252.787 270.328 253.035 270.584 253.347 270.776C253.659 270.96 254.007 271.052 254.391 271.052ZM258.716 272V265.892H259.916V272H258.716ZM259.316 264.908C259.116 264.908 258.944 264.836 258.8 264.692C258.656 264.54 258.584 264.364 258.584 264.164C258.584 263.956 258.656 263.784 258.8 263.648C258.944 263.504 259.116 263.432 259.316 263.432C259.524 263.432 259.7 263.504 259.844 263.648C259.988 263.784 260.06 263.956 260.06 264.164C260.06 264.364 259.988 264.54 259.844 264.692C259.7 264.836 259.524 264.908 259.316 264.908ZM263.945 272.108C263.353 272.108 262.901 271.972 262.589 271.7C262.277 271.42 262.121 271.016 262.121 270.488V266.9H260.825V265.892H262.121V264.332L263.309 264.044V265.892H265.109V266.9H263.309V270.212C263.309 270.524 263.377 270.748 263.513 270.884C263.657 271.012 263.889 271.076 264.209 271.076C264.377 271.076 264.525 271.064 264.653 271.04C264.789 271.016 264.933 270.98 265.085 270.932V271.94C264.925 271.996 264.737 272.036 264.521 272.06C264.313 272.092 264.121 272.108 263.945 272.108ZM267.925 272.108C267.485 272.108 267.097 272.032 266.761 271.88C266.425 271.72 266.161 271.5 265.969 271.22C265.777 270.94 265.681 270.616 265.681 270.248C265.681 269.672 265.901 269.22 266.341 268.892C266.781 268.556 267.385 268.388 268.153 268.388C268.753 268.388 269.309 268.504 269.821 268.736V268.088C269.821 267.648 269.693 267.32 269.437 267.104C269.189 266.888 268.821 266.78 268.333 266.78C268.053 266.78 267.761 266.824 267.457 266.912C267.153 266.992 266.813 267.12 266.437 267.296L265.993 266.396C266.457 266.18 266.889 266.024 267.289 265.928C267.689 265.824 268.093 265.772 268.501 265.772C269.293 265.772 269.905 265.96 270.337 266.336C270.777 266.712 270.997 267.248 270.997 267.944V272H269.821V271.472C269.549 271.688 269.257 271.848 268.945 271.952C268.633 272.056 268.293 272.108 267.925 272.108ZM266.833 270.224C266.833 270.52 266.957 270.76 267.205 270.944C267.461 271.128 267.793 271.22 268.201 271.22C268.521 271.22 268.813 271.172 269.077 271.076C269.349 270.98 269.597 270.832 269.821 270.632V269.6C269.589 269.464 269.345 269.368 269.089 269.312C268.841 269.248 268.561 269.216 268.249 269.216C267.809 269.216 267.461 269.308 267.205 269.492C266.957 269.668 266.833 269.912 266.833 270.224ZM272.38 272V265.892H273.58V266.672C273.772 266.384 274.008 266.16 274.288 266C274.576 265.832 274.9 265.748 275.26 265.748C275.508 265.756 275.712 265.792 275.872 265.856V266.936C275.76 266.888 275.644 266.856 275.524 266.84C275.404 266.816 275.284 266.804 275.164 266.804C274.812 266.804 274.5 266.9 274.228 267.092C273.956 267.276 273.74 267.548 273.58 267.908V272H272.38ZM279.341 272V265.892H280.541V272H279.341ZM279.941 264.908C279.741 264.908 279.569 264.836 279.425 264.692C279.281 264.54 279.209 264.364 279.209 264.164C279.209 263.956 279.281 263.784 279.425 263.648C279.569 263.504 279.741 263.432 279.941 263.432C280.149 263.432 280.325 263.504 280.469 263.648C280.613 263.784 280.685 263.956 280.685 264.164C280.685 264.364 280.613 264.54 280.469 264.692C280.325 264.836 280.149 264.908 279.941 264.908ZM281.954 272V265.892H283.154V266.516C283.626 266.02 284.238 265.772 284.99 265.772C285.462 265.772 285.874 265.872 286.226 266.072C286.586 266.272 286.866 266.552 287.066 266.912C287.274 267.272 287.378 267.688 287.378 268.16V272H286.178V268.364C286.178 267.884 286.042 267.508 285.77 267.236C285.506 266.956 285.134 266.816 284.654 266.816C284.334 266.816 284.046 266.884 283.79 267.02C283.534 267.156 283.322 267.352 283.154 267.608V272H281.954ZM289.499 272V266.9H288.083V265.892H289.499V264.968C289.499 264.328 289.675 263.84 290.027 263.504C290.387 263.168 290.899 263 291.563 263C291.731 263 291.887 263.012 292.031 263.036C292.183 263.052 292.319 263.08 292.439 263.12V264.152C292.295 264.112 292.167 264.084 292.055 264.068C291.943 264.044 291.819 264.032 291.683 264.032C291.347 264.032 291.095 264.112 290.927 264.272C290.767 264.424 290.687 264.668 290.687 265.004V265.892H292.439V266.9H290.687V272H289.499ZM295.979 272.12C295.387 272.12 294.847 271.98 294.359 271.7C293.879 271.42 293.499 271.04 293.219 270.56C292.939 270.08 292.799 269.544 292.799 268.952C292.799 268.36 292.939 267.824 293.219 267.344C293.499 266.864 293.879 266.484 294.359 266.204C294.847 265.916 295.387 265.772 295.979 265.772C296.579 265.772 297.119 265.916 297.599 266.204C298.079 266.484 298.459 266.864 298.739 267.344C299.019 267.824 299.159 268.36 299.159 268.952C299.159 269.544 299.019 270.08 298.739 270.56C298.459 271.04 298.079 271.42 297.599 271.7C297.119 271.98 296.579 272.12 295.979 272.12ZM295.979 271.064C296.355 271.064 296.695 270.972 296.999 270.788C297.303 270.596 297.543 270.34 297.719 270.02C297.895 269.7 297.983 269.34 297.983 268.94C297.983 268.548 297.891 268.196 297.707 267.884C297.531 267.564 297.291 267.308 296.987 267.116C296.691 266.924 296.355 266.828 295.979 266.828C295.603 266.828 295.263 266.924 294.959 267.116C294.663 267.308 294.423 267.564 294.239 267.884C294.063 268.196 293.975 268.548 293.975 268.94C293.975 269.34 294.063 269.7 294.239 270.02C294.415 270.34 294.655 270.596 294.959 270.788C295.263 270.972 295.603 271.064 295.979 271.064ZM300.294 272V265.892H301.494V266.672C301.686 266.384 301.922 266.16 302.202 266C302.49 265.832 302.814 265.748 303.174 265.748C303.422 265.756 303.626 265.792 303.786 265.856V266.936C303.674 266.888 303.558 266.856 303.438 266.84C303.318 266.816 303.198 266.804 303.078 266.804C302.726 266.804 302.414 266.9 302.142 267.092C301.87 267.276 301.654 267.548 301.494 267.908V272H300.294ZM304.747 272V265.892H305.947V266.48C306.403 266.008 306.975 265.772 307.663 265.772C308.079 265.772 308.447 265.864 308.767 266.048C309.095 266.232 309.355 266.48 309.547 266.792C309.803 266.456 310.103 266.204 310.447 266.036C310.791 265.86 311.179 265.772 311.611 265.772C312.067 265.772 312.463 265.872 312.799 266.072C313.143 266.272 313.411 266.552 313.603 266.912C313.803 267.272 313.903 267.688 313.903 268.16V272H312.703V268.364C312.703 267.884 312.575 267.508 312.319 267.236C312.071 266.956 311.731 266.816 311.299 266.816C311.003 266.816 310.735 266.884 310.495 267.02C310.255 267.156 310.047 267.364 309.871 267.644C309.887 267.724 309.899 267.808 309.907 267.896C309.915 267.984 309.919 268.072 309.919 268.16V272H308.731V268.364C308.731 267.884 308.603 267.508 308.347 267.236C308.099 266.956 307.759 266.816 307.327 266.816C307.039 266.816 306.779 266.88 306.547 267.008C306.315 267.128 306.115 267.312 305.947 267.56V272H304.747ZM317.214 272.108C316.774 272.108 316.386 272.032 316.05 271.88C315.714 271.72 315.45 271.5 315.258 271.22C315.066 270.94 314.97 270.616 314.97 270.248C314.97 269.672 315.19 269.22 315.63 268.892C316.07 268.556 316.674 268.388 317.442 268.388C318.042 268.388 318.598 268.504 319.11 268.736V268.088C319.11 267.648 318.982 267.32 318.726 267.104C318.478 266.888 318.11 266.78 317.622 266.78C317.342 266.78 317.05 266.824 316.746 266.912C316.442 266.992 316.102 267.12 315.726 267.296L315.282 266.396C315.746 266.18 316.178 266.024 316.578 265.928C316.978 265.824 317.382 265.772 317.79 265.772C318.582 265.772 319.194 265.96 319.626 266.336C320.066 266.712 320.286 267.248 320.286 267.944V272H319.11V271.472C318.838 271.688 318.546 271.848 318.234 271.952C317.922 272.056 317.582 272.108 317.214 272.108ZM316.122 270.224C316.122 270.52 316.246 270.76 316.494 270.944C316.75 271.128 317.082 271.22 317.49 271.22C317.81 271.22 318.102 271.172 318.366 271.076C318.638 270.98 318.886 270.832 319.11 270.632V269.6C318.878 269.464 318.634 269.368 318.378 269.312C318.13 269.248 317.85 269.216 317.538 269.216C317.098 269.216 316.75 269.308 316.494 269.492C316.246 269.668 316.122 269.912 316.122 270.224ZM324.537 272.108C323.953 272.108 323.421 271.968 322.941 271.688C322.461 271.408 322.081 271.028 321.801 270.548C321.529 270.068 321.393 269.532 321.393 268.94C321.393 268.348 321.533 267.816 321.813 267.344C322.093 266.864 322.469 266.484 322.941 266.204C323.421 265.916 323.953 265.772 324.537 265.772C325.001 265.772 325.445 265.86 325.869 266.036C326.301 266.212 326.673 266.46 326.985 266.78L326.241 267.608C326.009 267.352 325.749 267.16 325.461 267.032C325.173 266.904 324.873 266.84 324.561 266.84C324.193 266.84 323.857 266.932 323.553 267.116C323.257 267.3 323.021 267.552 322.845 267.872C322.669 268.192 322.581 268.548 322.581 268.94C322.581 269.332 322.669 269.688 322.845 270.008C323.021 270.328 323.261 270.584 323.565 270.776C323.869 270.96 324.209 271.052 324.585 271.052C324.897 271.052 325.189 270.992 325.461 270.872C325.733 270.744 325.989 270.56 326.229 270.32L326.961 271.088C326.641 271.416 326.269 271.668 325.845 271.844C325.429 272.02 324.993 272.108 324.537 272.108ZM327.927 272V265.892H329.127V272H327.927ZM328.527 264.908C328.327 264.908 328.155 264.836 328.011 264.692C327.867 264.54 327.795 264.364 327.795 264.164C327.795 263.956 327.867 263.784 328.011 263.648C328.155 263.504 328.327 263.432 328.527 263.432C328.735 263.432 328.911 263.504 329.055 263.648C329.199 263.784 329.271 263.956 329.271 264.164C329.271 264.364 329.199 264.54 329.055 264.692C328.911 264.836 328.735 264.908 328.527 264.908ZM333.444 272.12C332.852 272.12 332.312 271.98 331.824 271.7C331.344 271.42 330.964 271.04 330.684 270.56C330.404 270.08 330.264 269.544 330.264 268.952C330.264 268.36 330.404 267.824 330.684 267.344C330.964 266.864 331.344 266.484 331.824 266.204C332.312 265.916 332.852 265.772 333.444 265.772C334.044 265.772 334.584 265.916 335.064 266.204C335.544 266.484 335.924 266.864 336.204 267.344C336.484 267.824 336.624 268.36 336.624 268.952C336.624 269.544 336.484 270.08 336.204 270.56C335.924 271.04 335.544 271.42 335.064 271.7C334.584 271.98 334.044 272.12 333.444 272.12ZM333.444 271.064C333.82 271.064 334.16 270.972 334.464 270.788C334.768 270.596 335.008 270.34 335.184 270.02C335.36 269.7 335.448 269.34 335.448 268.94C335.448 268.548 335.356 268.196 335.172 267.884C334.996 267.564 334.756 267.308 334.452 267.116C334.156 266.924 333.82 266.828 333.444 266.828C333.068 266.828 332.728 266.924 332.424 267.116C332.128 267.308 331.888 267.564 331.704 267.884C331.528 268.196 331.44 268.548 331.44 268.94C331.44 269.34 331.528 269.7 331.704 270.02C331.88 270.34 332.12 270.596 332.424 270.788C332.728 270.972 333.068 271.064 333.444 271.064ZM332.592 264.764L333.696 263.3H335.136L333.6 264.764H332.592ZM337.759 272V265.892H338.959V266.516C339.431 266.02 340.043 265.772 340.795 265.772C341.267 265.772 341.679 265.872 342.031 266.072C342.391 266.272 342.671 266.552 342.871 266.912C343.079 267.272 343.183 267.688 343.183 268.16V272H341.983V268.364C341.983 267.884 341.847 267.508 341.575 267.236C341.311 266.956 340.939 266.816 340.459 266.816C340.139 266.816 339.851 266.884 339.595 267.02C339.339 267.156 339.127 267.352 338.959 267.608V272H337.759Z" fill="white"/>
<rect x="244" y="260" width="129" height="13" rx="6.5" fill="#DFE3E7"/>
<path d="M213.125 298.938V308.938C213.126 309.352 213.291 309.748 213.584 310.041C213.877 310.334 214.273 310.499 214.688 310.5H225.312C225.727 310.499 226.123 310.334 226.416 310.041C226.709 309.748 226.874 309.352 226.875 308.938V298.938" stroke="#6B748E" stroke-width="1.2" stroke-linecap="round" stroke-linejoin="round"/>
<path d="M227.031 295.5H212.969C212.365 295.5 211.875 295.99 211.875 296.594V297.531C211.875 298.135 212.365 298.625 212.969 298.625H227.031C227.635 298.625 228.125 298.135 228.125 297.531V296.594C228.125 295.99 227.635 295.5 227.031 295.5Z" stroke="#6B748E" stroke-width="1.2" stroke-linejoin="round"/>
<path d="M222.5 304.875L220 307.375L217.5 304.875M220 306.511V301.75" stroke="#6B748E" stroke-width="1.2" stroke-linecap="round" stroke-linejoin="round"/>
<path d="M244.012 308L247.48 299.6H248.968L252.4 308H251.032L250.06 305.54H246.304L245.32 308H244.012ZM246.712 304.496H249.652L248.188 300.8L246.712 304.496ZM253.122 308V301.892H254.322V302.672C254.514 302.384 254.75 302.16 255.03 302C255.318 301.832 255.642 301.748 256.002 301.748C256.25 301.756 256.454 301.792 256.614 301.856V302.936C256.502 302.888 256.386 302.856 256.266 302.84C256.146 302.816 256.026 302.804 255.906 302.804C255.554 302.804 255.242 302.9 254.97 303.092C254.698 303.276 254.482 303.548 254.322 303.908V308H253.122ZM260.092 308.108C259.508 308.108 258.976 307.968 258.496 307.688C258.016 307.408 257.636 307.028 257.356 306.548C257.084 306.068 256.948 305.532 256.948 304.94C256.948 304.348 257.088 303.816 257.368 303.344C257.648 302.864 258.024 302.484 258.496 302.204C258.976 301.916 259.508 301.772 260.092 301.772C260.556 301.772 261 301.86 261.424 302.036C261.856 302.212 262.228 302.46 262.54 302.78L261.796 303.608C261.564 303.352 261.304 303.16 261.016 303.032C260.728 302.904 260.428 302.84 260.116 302.84C259.748 302.84 259.412 302.932 259.108 303.116C258.812 303.3 258.576 303.552 258.4 303.872C258.224 304.192 258.136 304.548 258.136 304.94C258.136 305.332 258.224 305.688 258.4 306.008C258.576 306.328 258.816 306.584 259.12 306.776C259.424 306.96 259.764 307.052 260.14 307.052C260.452 307.052 260.744 306.992 261.016 306.872C261.288 306.744 261.544 306.56 261.784 306.32L262.516 307.088C262.196 307.416 261.824 307.668 261.4 307.844C260.984 308.02 260.548 308.108 260.092 308.108ZM263.481 308V299.6L264.681 299.336V302.516C265.153 302.02 265.765 301.772 266.517 301.772C266.989 301.772 267.401 301.872 267.753 302.072C268.113 302.272 268.393 302.552 268.593 302.912C268.801 303.272 268.905 303.688 268.905 304.16V308H267.705V304.364C267.705 303.884 267.569 303.508 267.297 303.236C267.025 302.956 266.653 302.816 266.181 302.816C265.861 302.816 265.573 302.884 265.317 303.02C265.061 303.156 264.849 303.352 264.681 303.608V308H263.481ZM270.29 308V301.892H271.49V308H270.29ZM270.89 300.908C270.69 300.908 270.518 300.836 270.374 300.692C270.23 300.54 270.158 300.364 270.158 300.164C270.158 299.956 270.23 299.784 270.374 299.648C270.518 299.504 270.69 299.432 270.89 299.432C271.098 299.432 271.274 299.504 271.418 299.648C271.562 299.784 271.634 299.956 271.634 300.164C271.634 300.364 271.562 300.54 271.418 300.692C271.274 300.836 271.098 300.908 270.89 300.908ZM274.871 308L272.231 301.892H273.551L275.459 306.464L277.367 301.892H278.639L276.023 308H274.871ZM281.07 308.108C280.63 308.108 280.242 308.032 279.906 307.88C279.57 307.72 279.306 307.5 279.114 307.22C278.922 306.94 278.826 306.616 278.826 306.248C278.826 305.672 279.046 305.22 279.486 304.892C279.926 304.556 280.53 304.388 281.298 304.388C281.898 304.388 282.454 304.504 282.966 304.736V304.088C282.966 303.648 282.838 303.32 282.582 303.104C282.334 302.888 281.966 302.78 281.478 302.78C281.198 302.78 280.906 302.824 280.602 302.912C280.298 302.992 279.958 303.12 279.582 303.296L279.138 302.396C279.602 302.18 280.034 302.024 280.434 301.928C280.834 301.824 281.238 301.772 281.646 301.772C282.438 301.772 283.05 301.96 283.482 302.336C283.922 302.712 284.142 303.248 284.142 303.944V308H282.966V307.472C282.694 307.688 282.402 307.848 282.09 307.952C281.778 308.056 281.438 308.108 281.07 308.108ZM279.978 306.224C279.978 306.52 280.102 306.76 280.35 306.944C280.606 307.128 280.938 307.22 281.346 307.22C281.666 307.22 281.958 307.172 282.222 307.076C282.494 306.98 282.742 306.832 282.966 306.632V305.6C282.734 305.464 282.49 305.368 282.234 305.312C281.986 305.248 281.706 305.216 281.394 305.216C280.954 305.216 280.606 305.308 280.35 305.492C280.102 305.668 279.978 305.912 279.978 306.224ZM285.524 308V301.892H286.724V302.672C286.916 302.384 287.152 302.16 287.432 302C287.72 301.832 288.044 301.748 288.404 301.748C288.652 301.756 288.856 301.792 289.016 301.856V302.936C288.904 302.888 288.788 302.856 288.668 302.84C288.548 302.816 288.428 302.804 288.308 302.804C287.956 302.804 287.644 302.9 287.372 303.092C287.1 303.276 286.884 303.548 286.724 303.908V308H285.524ZM295.101 308.108C294.509 308.108 294.057 307.972 293.745 307.7C293.433 307.42 293.277 307.016 293.277 306.488V302.9H291.981V301.892H293.277V300.332L294.465 300.044V301.892H296.265V302.9H294.465V306.212C294.465 306.524 294.533 306.748 294.669 306.884C294.813 307.012 295.045 307.076 295.365 307.076C295.533 307.076 295.681 307.064 295.809 307.04C295.945 307.016 296.089 306.98 296.241 306.932V307.94C296.081 307.996 295.893 308.036 295.677 308.06C295.469 308.092 295.277 308.108 295.101 308.108ZM299.96 308.12C299.368 308.12 298.828 307.98 298.34 307.7C297.86 307.42 297.48 307.04 297.2 306.56C296.92 306.08 296.78 305.544 296.78 304.952C296.78 304.36 296.92 303.824 297.2 303.344C297.48 302.864 297.86 302.484 298.34 302.204C298.828 301.916 299.368 301.772 299.96 301.772C300.56 301.772 301.1 301.916 301.58 302.204C302.06 302.484 302.44 302.864 302.72 303.344C303 303.824 303.14 304.36 303.14 304.952C303.14 305.544 303 306.08 302.72 306.56C302.44 307.04 302.06 307.42 301.58 307.7C301.1 307.98 300.56 308.12 299.96 308.12ZM299.96 307.064C300.336 307.064 300.676 306.972 300.98 306.788C301.284 306.596 301.524 306.34 301.7 306.02C301.876 305.7 301.964 305.34 301.964 304.94C301.964 304.548 301.872 304.196 301.688 303.884C301.512 303.564 301.272 303.308 300.968 303.116C300.672 302.924 300.336 302.828 299.96 302.828C299.584 302.828 299.244 302.924 298.94 303.116C298.644 303.308 298.404 303.564 298.22 303.884C298.044 304.196 297.956 304.548 297.956 304.94C297.956 305.34 298.044 305.7 298.22 306.02C298.396 306.34 298.636 306.596 298.94 306.788C299.244 306.972 299.584 307.064 299.96 307.064ZM306.638 308.12C306.166 308.12 305.75 308.02 305.39 307.82C305.03 307.62 304.75 307.34 304.55 306.98C304.35 306.612 304.25 306.192 304.25 305.72V301.892H305.438V305.516C305.438 305.996 305.574 306.376 305.846 306.656C306.126 306.936 306.498 307.076 306.962 307.076C307.29 307.076 307.582 307.008 307.838 306.872C308.094 306.728 308.302 306.528 308.462 306.272V301.892H309.662V308H308.462V307.376C307.99 307.872 307.382 308.12 306.638 308.12ZM311.083 308V301.892H312.283V302.672C312.475 302.384 312.711 302.16 312.991 302C313.279 301.832 313.603 301.748 313.963 301.748C314.211 301.756 314.415 301.792 314.575 301.856V302.936C314.463 302.888 314.347 302.856 314.227 302.84C314.107 302.816 313.987 302.804 313.867 302.804C313.515 302.804 313.203 302.9 312.931 303.092C312.659 303.276 312.443 303.548 312.283 303.908V308H311.083Z" fill="white"/>
<rect x="244" y="296" width="110" height="13" rx="6.5" fill="#DFE3E7"/>
<rect x="197.5" y="45.5" width="209" height="286" rx="8.5" stroke="#DFE3E7"/>
</svg>
