<svg width="48" height="48" viewBox="0 0 48 48" fill="none" xmlns="http://www.w3.org/2000/svg">
<rect x="20.2227" y="17.2085" width="7.11111" height="7.09546" rx="1" stroke="#030E63" stroke-width="1.2"/>
<rect x="21.1113" y="11" width="5.33334" height="3.54773" rx="1" stroke="#030E63" stroke-width="1.2"/>
<rect x="30" y="11.8867" width="3.55556" height="1.77388" rx="0.88694" stroke="#030E63" stroke-width="1.2"/>
<path d="M29.9998 12.7739H26.8887" stroke="#030E63"/>
<rect x="22.667" y="14.5479" width="2.33334" height="2.6608" stroke="#030E63" stroke-width="1.2"/>
<rect x="22.8887" y="24.3042" width="1.77778" height="13.304" rx="0.888889" stroke="#030E63" stroke-width="1.2"/>
<path d="M20.7735 24.7486C20.9174 24.4753 21.2009 24.3042 21.5098 24.3042V24.3042C22.1363 24.3042 22.5381 24.9701 22.2462 25.5243L16.1154 37.1638C15.9714 37.4371 15.6879 37.6082 15.379 37.6082V37.6082C14.7526 37.6082 14.3508 36.9423 14.6427 36.388L20.7735 24.7486Z" stroke="#030E63" stroke-width="1.2"/>
<path d="M26.7822 24.7486C26.6382 24.4753 26.3547 24.3042 26.0458 24.3042V24.3042C25.4194 24.3042 25.0175 24.9701 25.3094 25.5243L31.4403 37.1638C31.5842 37.4371 31.8677 37.6082 32.1766 37.6082V37.6082C32.803 37.6082 33.2049 36.9423 32.913 36.388L26.7822 24.7486Z" stroke="#030E63" stroke-width="1.2"/>
</svg>
